<svg xmlns="http://www.w3.org/2000/svg" xmlns:xlink="http://www.w3.org/1999/xlink" width="494" height="326">
  <defs>
    <radialGradient id="a" cx="52.436%" cy="42.955%" r="122.269%" fx="52.436%" fy="42.955%" gradientTransform="matrix(-.29537 0 0 -.21136 .68 .52)">
      <stop offset="0%"/>
      <stop offset="100%" stop-opacity="0"/>
    </radialGradient>
    <linearGradient id="b" x1="45.041%" x2="56.614%" y1="5.536%" y2="97.907%">
      <stop offset="0%" stop-color="#76E1FF"/>
      <stop offset="100%" stop-color="#637BFF" stop-opacity="0"/>
    </linearGradient>
    <linearGradient id="c" x1="43.724%" x2="58.371%" y1="5.536%" y2="97.907%">
      <stop offset="0%" stop-color="#76E1FF"/>
      <stop offset="100%" stop-color="#637BFF" stop-opacity="0"/>
    </linearGradient>
    <linearGradient id="d" x1="47.159%" x2="53.789%" y1="5.536%" y2="97.907%">
      <stop offset="0%" stop-color="#76E1FF"/>
      <stop offset="100%" stop-color="#637BFF" stop-opacity="0"/>
    </linearGradient>
    <linearGradient id="e" x1="49.17%" x2="51.107%" y1="5.536%" y2="97.907%">
      <stop offset="0%" stop-color="#76E1FF"/>
      <stop offset="100%" stop-color="#637BFF" stop-opacity="0"/>
    </linearGradient>
    <linearGradient id="f" x1="49.992%" x2="50.011%" y1="5.536%" y2="97.907%">
      <stop offset="0%" stop-color="#76E1FF"/>
      <stop offset="100%" stop-color="#637BFF" stop-opacity="0"/>
    </linearGradient>
    <linearGradient id="g" x1="49.712%" x2="50.385%" y1="5.536%" y2="97.907%">
      <stop offset="0%" stop-color="#76E1FF"/>
      <stop offset="100%" stop-color="#637BFF" stop-opacity="0"/>
    </linearGradient>
    <radialGradient id="h" cx="52.436%" cy="42.955%" r="237.358%" fx="52.436%" fy="42.955%" gradientTransform="matrix(-.21333 0 0 -.32285 .636 .568)">
      <stop offset="0%"/>
      <stop offset="100%" stop-opacity=".329"/>
    </radialGradient>
    <filter id="i" width="124%" height="212.5%" x="-12%" y="-56.2%" filterUnits="objectBoundingBox">
      <feGaussianBlur in="SourceGraphic" stdDeviation="3"/>
    </filter>
    <linearGradient id="j" x1="0%" y1="50%" y2="50%">
      <stop offset="0%" stop-color="#5B79A2"/>
      <stop offset="100%" stop-color="#2E4469"/>
    </linearGradient>
    <path id="l" d="M15 0h19v3H15z"/>
    <filter id="k" width="163.2%" height="500%" x="-31.6%" y="-200%" filterUnits="objectBoundingBox">
      <feOffset in="SourceAlpha" result="shadowOffsetOuter1"/>
      <feGaussianBlur in="shadowOffsetOuter1" result="shadowBlurOuter1" stdDeviation="2"/>
      <feColorMatrix in="shadowBlurOuter1" values="0 0 0 0 0.510948432 0 0 0 0 0.943444293 0 0 0 0 0.848148595 0 0 0 0.49104021 0"/>
    </filter>
    <path id="n" d="M36 0h5v3h-5z"/>
    <filter id="m" width="340%" height="500%" x="-120%" y="-200%" filterUnits="objectBoundingBox">
      <feOffset in="SourceAlpha" result="shadowOffsetOuter1"/>
      <feGaussianBlur in="shadowOffsetOuter1" result="shadowBlurOuter1" stdDeviation="2"/>
      <feColorMatrix in="shadowBlurOuter1" values="0 0 0 0 0.510948432 0 0 0 0 0.943444293 0 0 0 0 0.848148595 0 0 0 0.49104021 0"/>
    </filter>
    <path id="p" d="M8 0h33v3H8z"/>
    <filter id="o" width="136.4%" height="500%" x="-18.2%" y="-200%" filterUnits="objectBoundingBox">
      <feOffset in="SourceAlpha" result="shadowOffsetOuter1"/>
      <feGaussianBlur in="shadowOffsetOuter1" result="shadowBlurOuter1" stdDeviation="2"/>
      <feColorMatrix in="shadowBlurOuter1" values="0 0 0 0 0.510948432 0 0 0 0 0.943444293 0 0 0 0 0.848148595 0 0 0 0.49104021 0"/>
    </filter>
    <path id="r" d="M15 0h14v3H15z"/>
    <filter id="q" width="185.7%" height="500%" x="-42.9%" y="-200%" filterUnits="objectBoundingBox">
      <feOffset in="SourceAlpha" result="shadowOffsetOuter1"/>
      <feGaussianBlur in="shadowOffsetOuter1" result="shadowBlurOuter1" stdDeviation="2"/>
      <feColorMatrix in="shadowBlurOuter1" values="0 0 0 0 0.510948432 0 0 0 0 0.943444293 0 0 0 0 0.848148595 0 0 0 0.49104021 0"/>
    </filter>
    <path id="t" d="M36 0h13v3H36z"/>
    <filter id="s" width="192.3%" height="500%" x="-46.2%" y="-200%" filterUnits="objectBoundingBox">
      <feOffset in="SourceAlpha" result="shadowOffsetOuter1"/>
      <feGaussianBlur in="shadowOffsetOuter1" result="shadowBlurOuter1" stdDeviation="2"/>
      <feColorMatrix in="shadowBlurOuter1" values="0 0 0 0 0.510948432 0 0 0 0 0.943444293 0 0 0 0 0.848148595 0 0 0 0.49104021 0"/>
    </filter>
    <path id="v" d="M51 0h5v3h-5z"/>
    <filter id="u" width="340%" height="500%" x="-120%" y="-200%" filterUnits="objectBoundingBox">
      <feOffset in="SourceAlpha" result="shadowOffsetOuter1"/>
      <feGaussianBlur in="shadowOffsetOuter1" result="shadowBlurOuter1" stdDeviation="2"/>
      <feColorMatrix in="shadowBlurOuter1" values="0 0 0 0 0.510948432 0 0 0 0 0.943444293 0 0 0 0 0.848148595 0 0 0 0.49104021 0"/>
    </filter>
    <linearGradient id="w" x1="4.47%" x2="117.825%" y1="44.608%" y2="58.986%">
      <stop offset="0%" stop-color="#5B79A2"/>
      <stop offset="100%" stop-color="#2E4469"/>
    </linearGradient>
    <linearGradient id="x" x1="16.571%" x2="31.545%" y1="40.166%" y2="52.219%">
      <stop offset="0%" stop-color="#4CC9AE"/>
      <stop offset="100%" stop-color="#4BF8D1" stop-opacity="0"/>
    </linearGradient>
    <linearGradient id="y" x1="-24.308%" y1="-161.748%" y2="17.569%">
      <stop offset="0%" stop-color="#5B79A2"/>
      <stop offset="100%" stop-color="#2E4469"/>
    </linearGradient>
    <linearGradient id="z" x1="50%" x2="50%" y1="11.35%" y2="111.35%">
      <stop offset="0%" stop-color="#6EDCC4"/>
      <stop offset="100%" stop-color="#1AAB8B"/>
    </linearGradient>
    <linearGradient id="A" x1="0%" y1="30.569%" y2="71.228%">
      <stop offset="0%" stop-color="#6EDCC4"/>
      <stop offset="100%" stop-color="#1AAB8B" stop-opacity="0"/>
    </linearGradient>
    <linearGradient id="B" x1="50%" x2="50%" y1="11.35%" y2="111.35%">
      <stop offset="0%" stop-color="#6EDCC4"/>
      <stop offset="100%" stop-color="#1AAB8B"/>
    </linearGradient>
    <linearGradient id="C" x1="50%" x2="50%" y1="11.35%" y2="111.35%">
      <stop offset="0%" stop-color="#59B29E"/>
      <stop offset="100%" stop-color="#1AAB8B"/>
    </linearGradient>
    <linearGradient id="D" x1="22.665%" x2="159.037%" y1="0%" y2="216.06%">
      <stop offset="0%" stop-color="#6EDCC4"/>
      <stop offset="100%" stop-color="#1AAB8B" stop-opacity="0"/>
    </linearGradient>
    <filter id="E" width="209.1%" height="209.1%" x="-54.5%" y="-54.5%" filterUnits="objectBoundingBox">
      <feGaussianBlur in="SourceGraphic" stdDeviation="2"/>
    </filter>
    <linearGradient id="F" x1="59.067%" x2="-10.769%" y1="44.533%" y2="79.115%">
      <stop offset="0%" stop-color="#B595FD"/>
      <stop offset="100%" stop-color="#B372BD" stop-opacity="0"/>
    </linearGradient>
    <linearGradient id="G" x1="50%" x2="50%" y1="100%" y2="0%">
      <stop offset="0%" stop-color="#8B60ED"/>
      <stop offset="100%" stop-color="#B372BD"/>
    </linearGradient>
    <linearGradient id="H" x1="50%" x2="50%" y1="100%" y2="0%">
      <stop offset="0%" stop-color="#7551C8"/>
      <stop offset="100%" stop-color="#A859B4"/>
    </linearGradient>
    <linearGradient id="I" x1="20.941%" x2="69.553%" y1="-161.748%" y2="17.569%">
      <stop offset="0%" stop-color="#5B79A2"/>
      <stop offset="100%" stop-color="#2E4469"/>
    </linearGradient>
    <linearGradient id="J" x1="57.928%" x2="50%" y1="316.497%" y2="0%">
      <stop offset="0%" stop-color="#5B79A2"/>
      <stop offset="100%" stop-color="#2E4469"/>
    </linearGradient>
    <linearGradient id="K" x1="4.47%" x2="117.825%" y1="21.489%" y2="97.519%">
      <stop offset="0%" stop-color="#5B79A2"/>
      <stop offset="100%" stop-color="#2E4469"/>
    </linearGradient>
    <radialGradient id="L" cx="52.436%" cy="42.955%" r="346.694%" fx="52.436%" fy="42.955%" gradientTransform="matrix(-.10417 0 0 -.21136 .579 .52)">
      <stop offset="0%" stop-color="#3F237F"/>
      <stop offset="100%" stop-opacity="0"/>
    </radialGradient>
    <filter id="M" width="118.8%" height="280%" x="-9.4%" y="-90%" filterUnits="objectBoundingBox">
      <feGaussianBlur in="SourceGraphic" stdDeviation="3"/>
    </filter>
    <linearGradient id="N" x1="5.087%" x2="116.906%" y1="0%" y2="133.334%">
      <stop offset="0%" stop-color="#5B79A2"/>
      <stop offset="100%" stop-color="#2E4469"/>
    </linearGradient>
    <linearGradient id="O" x1="50%" x2="50%" y1="0%" y2="50.445%">
      <stop offset="0%" stop-opacity="0"/>
      <stop offset="100%" stop-opacity=".372"/>
    </linearGradient>
    <filter id="P" width="131.5%" height="119.9%" x="-15.7%" filterUnits="objectBoundingBox">
      <feGaussianBlur in="SourceGraphic" stdDeviation="1"/>
    </filter>
    <linearGradient id="Q" x1="12.718%" x2="107.802%" y1="0%" y2="100%">
      <stop offset="0%" stop-color="#80A4D5"/>
      <stop offset="100%" stop-color="#2E4469"/>
    </linearGradient>
    <linearGradient id="R" x1="-24.308%" y1="-81.917%" y2="29.796%">
      <stop offset="0%" stop-color="#5B79A2"/>
      <stop offset="100%" stop-color="#2E4469"/>
    </linearGradient>
    <linearGradient id="S" x1="58.037%" x2="50%" y1="66.885%" y2="46.832%">
      <stop offset="0%" stop-color="#5B79A2"/>
      <stop offset="100%" stop-color="#2E4469"/>
    </linearGradient>
    <linearGradient id="T" x1="4.47%" x2="117.825%" y1="46.832%" y2="55.28%">
      <stop offset="0%" stop-color="#5B79A2"/>
      <stop offset="100%" stop-color="#2E4469"/>
    </linearGradient>
    <linearGradient id="U" x1="50%" x2="50%" y1="100%" y2="0%">
      <stop offset="0%" stop-color="#8B60ED"/>
      <stop offset="100%" stop-color="#B372BD"/>
    </linearGradient>
    <linearGradient id="V" x1="50%" x2="50%" y1="100%" y2="0%">
      <stop offset="0%" stop-color="#8B60ED"/>
      <stop offset="100%" stop-color="#B372BD"/>
    </linearGradient>
    <linearGradient id="W" x1="12.205%" x2="108.596%" y1="47.348%" y2="52.652%">
      <stop offset="0%" stop-color="#80A4D5"/>
      <stop offset="100%" stop-color="#2E4469"/>
    </linearGradient>
    <linearGradient id="X" x1="50%" x2="50%" y1="100%" y2="0%">
      <stop offset="0%" stop-color="#8B60ED"/>
      <stop offset="100%" stop-color="#B372BD"/>
    </linearGradient>
    <filter id="Y" width="176.4%" height="175.9%" x="-38.2%" y="-37.9%" filterUnits="objectBoundingBox">
      <feGaussianBlur in="SourceGraphic" stdDeviation="2"/>
    </filter>
    <linearGradient id="Z" x1="43.229%" x2="-16.174%" y1="42.376%" y2="66.373%">
      <stop offset="0%" stop-color="#B595FD"/>
      <stop offset="100%" stop-color="#B372BD" stop-opacity="0"/>
    </linearGradient>
    <linearGradient id="aa" x1="67.896%" x2="50%" y1="100%" y2="0%">
      <stop offset="0%" stop-color="#9A77EB"/>
      <stop offset="100%" stop-color="#CB7DD7"/>
    </linearGradient>
    <linearGradient id="ab" x1="50%" x2="50%" y1="100%" y2="0%">
      <stop offset="0%" stop-color="#A987F7"/>
      <stop offset="100%" stop-color="#B372BD"/>
    </linearGradient>
    <linearGradient id="ac" x1="67.896%" x2="50%" y1="100%" y2="0%">
      <stop offset="0%" stop-color="#9A77EB"/>
      <stop offset="100%" stop-color="#CB7DD7"/>
    </linearGradient>
    <linearGradient id="ad" x1="0%" y1="50%" y2="50%">
      <stop offset="0%" stop-color="#5B79A2"/>
      <stop offset="100%" stop-color="#2E4469"/>
    </linearGradient>
    <linearGradient id="ae" x1="50%" x2="50%" y1="0%" y2="100%">
      <stop offset="0%" stop-color="#5B79A2"/>
      <stop offset="100%" stop-color="#2E4469"/>
    </linearGradient>
    <linearGradient id="af" x1="50%" x2="50%" y1="0%" y2="100%">
      <stop offset="0%" stop-color="#C4D6EB" stop-opacity=".3"/>
      <stop offset="100%" stop-color="#91ACD2" stop-opacity=".3"/>
    </linearGradient>
    <linearGradient id="ag" x1="50%" x2="50%" y1="0%" y2="100%">
      <stop offset="0%" stop-color="#C4D6EB" stop-opacity=".3"/>
      <stop offset="100%" stop-color="#91ACD2" stop-opacity=".3"/>
    </linearGradient>
    <linearGradient id="ah" x1="14.645%" x2="85.355%" y1="85.355%" y2="14.645%">
      <stop offset="0%" stop-color="#2F4568"/>
      <stop offset="100%" stop-color="#445D7F"/>
    </linearGradient>
    <linearGradient id="ai" x1="50%" x2="98.651%" y1="0%" y2="19.713%">
      <stop offset="0%" stop-color="#8EABCB" stop-opacity="0"/>
      <stop offset="100%" stop-color="#55739B"/>
    </linearGradient>
    <linearGradient id="aj" x1="8.332%" y1="50%" y2="57.469%">
      <stop offset="0%" stop-color="#FFE474" stop-opacity=".131"/>
      <stop offset="100%" stop-color="#FFC540"/>
    </linearGradient>
    <linearGradient id="ak" x1="170.812%" x2=".733%" y1="54.288%" y2="50.088%">
      <stop offset="0%" stop-color="#F2A27A"/>
      <stop offset="100%" stop-color="#FFC73C"/>
    </linearGradient>
    <linearGradient id="al" x1="59.239%" x2="32.528%" y1="-36.397%" y2="100%">
      <stop offset="0%" stop-color="#76E1FF"/>
      <stop offset="100%" stop-color="#637BFF" stop-opacity="0"/>
    </linearGradient>
    <linearGradient id="am" x1="50%" x2="50%" y1="0%" y2="97.483%">
      <stop offset="0%" stop-color="#21C8F6"/>
      <stop offset="100%" stop-color="#637BFF"/>
    </linearGradient>
    <linearGradient id="an" x1="0%" y1="50%" y2="50%">
      <stop offset="0%" stop-color="#5B79A2"/>
      <stop offset="100%" stop-color="#2E4469"/>
    </linearGradient>
    <linearGradient id="ao" x1="51.53%" x2="15.735%" y1="-19.014%" y2="60.727%">
      <stop offset="0%" stop-color="#5B79A2"/>
      <stop offset="100%" stop-color="#2E4469"/>
    </linearGradient>
    <linearGradient id="ap" x1="51.188%" x2="23.4%" y1="-164.307%" y2="83.311%">
      <stop offset="0%" stop-color="#5B79A2"/>
      <stop offset="100%" stop-color="#2E4469"/>
    </linearGradient>
    <radialGradient id="aq" cx="52.436%" cy="42.955%" r="62.354%" fx="52.436%" fy="42.955%" gradientTransform="matrix(-.39024 0 0 -.60305 .729 .689)">
      <stop offset="0%"/>
      <stop offset="100%" stop-opacity="0"/>
    </radialGradient>
    <linearGradient id="ar" x1="-24.308%" y1="1.351%" y2="42.549%">
      <stop offset="0%" stop-color="#5B79A2"/>
      <stop offset="100%" stop-color="#2E4469"/>
    </linearGradient>
    <radialGradient id="as" cx="52.436%" cy="42.955%" r="211.525%" fx="52.436%" fy="42.955%" gradientTransform="matrix(-.17073 0 0 -.21136 .614 .52)">
      <stop offset="0%"/>
      <stop offset="79.895%" stop-opacity="0"/>
    </radialGradient>
    <radialGradient id="at" cx="52.436%" cy="42.955%" r="124.393%" fx="52.436%" fy="42.955%" gradientTransform="matrix(-.29032 0 0 -.21136 .677 .52)">
      <stop offset="0%"/>
      <stop offset="79.895%" stop-opacity="0"/>
    </radialGradient>
    <linearGradient id="au" x1="-24.308%" y1="-70.879%" y2="31.486%">
      <stop offset="0%" stop-color="#5B79A2"/>
      <stop offset="100%" stop-color="#2E4469"/>
    </linearGradient>
    <linearGradient id="av" x1="-24.308%" y1="-69.746%" y2="31.66%">
      <stop offset="0%" stop-color="#5B79A2"/>
      <stop offset="100%" stop-color="#2E4469"/>
    </linearGradient>
    <linearGradient id="aw" x1="53.494%" x2="43.08%" y1="22.034%" y2="163.626%">
      <stop offset="0%" stop-color="#76E1FF"/>
      <stop offset="100%" stop-color="#637BFF"/>
    </linearGradient>
    <radialGradient id="ax" cx="52.436%" cy="42.955%" r="153.616%" fx="52.436%" fy="42.955%" gradientTransform="matrix(-.20938 0 0 -.35148 .634 .58)">
      <stop offset="0%"/>
      <stop offset="100%" stop-opacity=".002"/>
    </radialGradient>
    <linearGradient id="ay" x1="0%" y1="50%" y2="50%">
      <stop offset="0%" stop-color="#5B79A2"/>
      <stop offset="100%" stop-color="#2E4469"/>
    </linearGradient>
    <linearGradient id="az" x1="0%" y1="50%" y2="50%">
      <stop offset="0%" stop-color="#5B79A2"/>
      <stop offset="100%" stop-color="#2E4469"/>
    </linearGradient>
    <linearGradient id="aA" x1="50%" x2="45.858%" y1="150.305%" y2="15.231%">
      <stop offset="0%" stop-opacity="0"/>
      <stop offset="100%" stop-opacity=".372"/>
    </linearGradient>
    <filter id="aB" width="162.4%" height="118%" x="-31.2%" y="-9%" filterUnits="objectBoundingBox">
      <feGaussianBlur in="SourceGraphic" stdDeviation="1"/>
    </filter>
    <linearGradient id="aC" x1="50%" x2="50%" y1="0%" y2="50.445%">
      <stop offset="0%" stop-opacity="0"/>
      <stop offset="100%" stop-opacity=".372"/>
    </linearGradient>
    <filter id="aD" width="131.4%" height="119.9%" x="-15.7%" filterUnits="objectBoundingBox">
      <feGaussianBlur in="SourceGraphic" stdDeviation="1"/>
    </filter>
    <path id="aE" d="M0 0h81.032v55.553H0z"/>
    <linearGradient id="aF" x1="45.117%" x2="0%" y1="105.484%" y2="29.117%">
      <stop offset="0%" stop-color="#C4D6EB" stop-opacity=".676"/>
      <stop offset="100%" stop-color="#91ACD2" stop-opacity=".3"/>
    </linearGradient>
    <linearGradient id="aH" x1="-68.583%" x2="84.939%" y1="-39.599%" y2="55.347%">
      <stop offset="0%" stop-color="#F4487D" stop-opacity=".16"/>
      <stop offset="100%" stop-color="#FF6E9C"/>
    </linearGradient>
    <linearGradient id="aI" x1="-25.632%" x2="85.083%" y1="32.39%" y2="53.839%">
      <stop offset="0%" stop-color="#F4487D" stop-opacity=".16"/>
      <stop offset="100%" stop-color="#FF6E9C"/>
    </linearGradient>
    <linearGradient id="aJ" x1="100%" x2="8.332%" y1="56.084%" y2="50%">
      <stop offset="0%" stop-color="#F4487D" stop-opacity="0"/>
      <stop offset="100%" stop-color="#FF6E9C"/>
    </linearGradient>
    <linearGradient id="aK" x1="100%" x2="8.332%" y1="51.086%" y2="50%">
      <stop offset="0%" stop-color="#F4487D" stop-opacity="0"/>
      <stop offset="100%" stop-color="#FF6E9C"/>
    </linearGradient>
    <filter id="aL" width="236.3%" height="235.8%" x="-68.1%" y="-67.9%" filterUnits="objectBoundingBox">
      <feGaussianBlur in="SourceGraphic" stdDeviation="2"/>
    </filter>
    <filter id="aM" width="236.3%" height="235.8%" x="-68.1%" y="-67.9%" filterUnits="objectBoundingBox">
      <feGaussianBlur in="SourceGraphic" stdDeviation="2"/>
    </filter>
    <linearGradient id="aN" x1="52.343%" x2="47.668%" y1="-36.397%" y2="84.678%">
      <stop offset="0%" stop-color="#76E1FF"/>
      <stop offset="100%" stop-color="#637BFF" stop-opacity="0"/>
    </linearGradient>
    <linearGradient id="aO" x1="50%" x2="50%" y1="0%" y2="97.483%">
      <stop offset="0%" stop-color="#21C8F6"/>
      <stop offset="100%" stop-color="#637BFF"/>
    </linearGradient>
    <linearGradient id="aP" x1="50%" x2="50%" y1="0%" y2="97.483%">
      <stop offset="0%" stop-color="#21C8F6"/>
      <stop offset="100%" stop-color="#637BFF"/>
    </linearGradient>
  </defs>
  <g fill="none" fill-rule="evenodd" transform="translate(-4 -3)">
    <g transform="translate(126 186)">
      <ellipse cx="137" cy="40.465" fill="url(#a)" opacity=".328" rx="137" ry="40.465"/>
      <path stroke="url(#b)" stroke-width="2" d="M101.066 137.132v-32.796h-21.71V76.58H62.19V58.753H47.164v-44.14" opacity=".2"/>
      <path stroke="url(#c)" stroke-width="2" d="M150.744 137.132v-32.796l17.83 1.353V76.581H140.37V58.753h60.64v-44.14" opacity=".2"/>
      <path stroke="url(#d)" stroke-width="2" d="M132.508 139.38v-32.976l-6.844-.217V76.919h-8.737V58.995H90.959V14.612" opacity=".2"/>
      <path stroke="url(#e)" stroke-width="2" d="M239.189 139.38v-32.976l-6.885-.217V76.919h-8.79V58.995h-6.784V14.612" opacity=".2"/>
      <path stroke="url(#f)" stroke-width="2" d="M105.183 17.984v126.884" opacity=".2"/>
      <path stroke="url(#g)" stroke-width="2" d="M193.148 17.984v67.478h-13.476V145" opacity=".2"/>
      <path stroke="url(#f)" stroke-width="2" d="M68.126 17.984v126.884" opacity=".2"/>
    </g>
    <g transform="translate(38.21 8)">
      <ellipse cx="43.5" cy="83" fill="url(#h)" filter="url(#i)" opacity=".523" rx="37.5" ry="8"/>
      <rect width="79" height="52" x="6" fill="url(#j)" rx="7"/>
      <rect width="75" height="47" x="8" y="3" fill="#22385D" rx="4"/>
      <path fill="#5CD2B8" d="M14 8h23v3H14zm0 6h13v3H14z" opacity=".326"/>
      <g transform="translate(14 14)">
        <use fill="#000" filter="url(#k)" xlink:href="#l"/>
        <use fill="#5CD2B8" xlink:href="#l"/>
      </g>
      <path fill="#5CD2B8" d="M57 14h7v3h-7zm9 0h12v3H66z" opacity=".326"/>
      <g transform="translate(14 14)">
        <use fill="#000" filter="url(#m)" xlink:href="#n"/>
        <use fill="#5CD2B8" xlink:href="#n"/>
      </g>
      <path fill="#5CD2B8" d="M14 27h6v3h-6z" opacity=".326"/>
      <g transform="translate(14 27)">
        <use fill="#000" filter="url(#o)" xlink:href="#p"/>
        <use fill="#5CD2B8" xlink:href="#p"/>
      </g>
      <path fill="#5CD2B8" d="M57 27h21v3H57zm-43-6h13v3H14zm31 0h33v3H45z" opacity=".326"/>
      <g transform="translate(14 21)">
        <use fill="#000" filter="url(#q)" xlink:href="#r"/>
        <use fill="#5CD2B8" xlink:href="#r"/>
      </g>
      <path fill="#5CD2B8" d="M39 8h9v3h-9z" opacity=".326"/>
      <g transform="translate(14 8)">
        <use fill="#000" filter="url(#s)" xlink:href="#t"/>
        <use fill="#5CD2B8" xlink:href="#t"/>
      </g>
      <path fill="#5CD2B8" d="M73 8h5v3h-5z" opacity=".326"/>
      <g transform="translate(14 8)">
        <use fill="#000" filter="url(#u)" xlink:href="#v"/>
        <use fill="#5CD2B8" xlink:href="#v"/>
      </g>
      <path fill="#2E4469" d="M16 55h58.716c6.627 0 12 5.373 12 12v3.16c0 6.628-5.373 12-12 12H16c-6.627 0-12-5.372-12-12V67c0-6.627 5.373-12 12-12z"/>
      <rect width="82.716" height="18.519" x="4" y="51" fill="#22385D" rx="3"/>
      <rect width="91.358" height="30" y="36.901" fill="url(#w)" rx="7"/>
      <rect width="90.358" height="29" x=".5" y="37.401" stroke="url(#x)" rx="7"/>
      <circle cx="21.877" cy="51.877" r="9.877" fill="url(#y)" stroke="#2E4469"/>
      <circle cx="44.5" cy="53.5" r="5.5" fill="url(#y)" stroke="#2E4469"/>
      <circle cx="60.5" cy="53.5" r="5.5" fill="url(#y)" stroke="#2E4469"/>
      <circle cx="76.5" cy="53.5" r="5.5" fill="url(#y)" stroke="#2E4469"/>
      <path stroke="url(#z)" d="M21.877 61.753c5.454 0 9.876-4.422 9.876-9.876 0-5.455-4.422-9.877-9.876-9.877C16.422 42 12 46.422 12 51.877" transform="rotate(-90 21.877 51.877)"/>
    </g>
    <g transform="translate(122.21 26)">
      <path stroke="url(#A)" stroke-linejoin="round" stroke-width="2" d="M106.362 73L43.085 33.333 30.614 5H2"/>
      <rect width="4" height="9" fill="url(#B)" rx="2" transform="matrix(-1 0 0 1 4 0)"/>
      <circle cx="43.5" cy="33.5" r="2.5" fill="url(#C)"/>
      <path fill="#FFF" fill-opacity=".2" d="M41.889 35A2.222 2.222 0 1 1 45 31.889 2.222 2.222 0 0 0 41.889 35z"/>
      <circle cx="30.5" cy="5.5" r="3.5" fill="url(#z)"/>
      <path fill="#FFF" fill-opacity=".2" d="M28.333 8A3.333 3.333 0 1 1 33 3.333 3.333 3.333 0 0 0 28.333 8z"/>
    </g>
    <g transform="rotate(-82 49.723 32.913)">
      <path stroke="url(#D)" stroke-linejoin="round" stroke-width="2" d="M19.5 28.503l16.617 13.529-4.956-29.841L7.746 9.492" transform="rotate(-141 21.932 25.762)"/>
      <circle cx="23.923" cy="47.923" r="3.5" fill="url(#z)" transform="rotate(-141 23.923 47.923)"/>
      <circle cx="24.736" cy="47.736" r="5.5" fill="url(#z)" filter="url(#E)" transform="rotate(-141 24.736 47.736)"/>
      <circle cx="20.986" cy="4.5" r="2.5" fill="url(#C)" transform="rotate(-141 20.986 4.5)"/>
      <path fill="#FFF" fill-opacity=".2" d="M23.182 4.348a2.222 2.222 0 1 1-4.376.46 2.222 2.222 0 0 0 4.376-.46z"/>
      <circle cx="6.622" cy="30.184" r="3.5" fill="url(#z)" transform="rotate(-141 6.622 30.184)"/>
      <path fill="#FFF" fill-opacity=".2" d="M9.879 29.605a3.333 3.333 0 1 1-6.564.69 3.333 3.333 0 0 0 6.564-.69z"/>
    </g>
    <g transform="translate(68.78 146.519)">
      <path stroke="url(#F)" stroke-width="2" d="M80 4.585H59.844l-18.2 60.97L.099 50.27" transform="matrix(-1 0 0 1 80.099 0)"/>
      <ellipse cx="5.049" cy="5.083" fill="url(#G)" rx="5.049" ry="5.083" transform="translate(14.707)"/>
      <path fill="#FFF" fill-opacity=".2" d="M16.702 9.037a5.024 5.024 0 0 1-1.995-4.017c0-2.772 2.233-5.02 4.987-5.02 1.63 0 3.08.789 3.989 2.008a4.942 4.942 0 0 0-2.992-1.004c-2.754 0-4.986 2.248-4.986 5.02 0 1.13.37 2.174.997 3.013z"/>
      <ellipse cx="38.829" cy="65.519" fill="url(#H)" rx="3.366" ry="3.389"/>
      <path fill="#FFF" fill-opacity=".2" d="M36.71 67.778a3.14 3.14 0 0 1-1.247-2.51 3.127 3.127 0 0 1 3.117-3.138c1.02 0 1.925.493 2.493 1.255a3.089 3.089 0 0 0-1.87-.628c-1.721 0-3.116 1.405-3.116 3.138 0 .706.232 1.358.623 1.883z"/>
    </g>
    <g transform="translate(8 142)">
      <path fill="url(#I)" fill-rule="nonzero" stroke="#2E4469" d="M57.455 1.13H45.277c-1.904 0-3.448 1.567-3.448 3.502V31.63h19.073V4.632c0-1.935-1.543-3.502-3.447-3.502z"/>
      <path fill="url(#J)" fill-rule="nonzero" d="M57.455 12.426H45.277c-1.904 0-3.448.987-3.448 2.205V31.63h19.073v-17c0-1.217-1.543-2.204-3.447-2.204z" opacity=".426" transform="rotate(-180 51.366 22.028)"/>
      <path fill="#FFF" fill-rule="nonzero" d="M60.325 3.726a3.406 3.406 0 0 0-2.31-.902H45.839c-1.904 0-3.448 1.568-3.448 3.502v24.739h-1.122V4.067c0-1.935 1.544-3.502 3.448-3.502h12.178c1.79 0 3.263 1.387 3.431 3.16z" opacity=".1"/>
      <path fill="url(#K)" fill-rule="nonzero" d="M38.463 24.852H65.39v20.333H38.463z"/>
      <ellipse cx="48.878" cy="112.139" fill="url(#L)" filter="url(#M)" opacity=".523" rx="48" ry="5"/>
      <ellipse cx="51.366" cy="73.991" fill="url(#N)" fill-rule="nonzero" rx="37.585" ry="37.843"/>
      <path fill="url(#O)" d="M22.195 42.2l2.347-.404 16.71 29.234-1.988.899z" filter="url(#P)" opacity=".72"/>
      <path fill="url(#Q)" fill-rule="nonzero" d="M25.356 101.308A37.857 37.857 0 0 1 13.78 73.991c0-20.9 16.828-37.843 37.586-37.843 10.664 0 20.291 4.472 27.132 11.655-6.752-6.52-15.917-10.525-26.01-10.525-20.758 0-37.586 16.942-37.586 37.842a37.852 37.852 0 0 0 10.454 26.188z"/>
      <path fill="url(#R)" fill-rule="nonzero" stroke="#2E4469" d="M23.799 57.611A32.282 32.282 0 0 0 19.39 73.95c0 17.803 14.316 32.235 31.976 32.235 17.66 0 31.975-14.432 31.975-32.235a32.281 32.281 0 0 0-4.408-16.339c-2.625-2.134-8.734-2.473-18.326-1.016-6.721 1.02-14.285 3.82-19.363 4.647-6.688 1.089-12.503-.121-17.445-3.63z"/>
      <path fill="url(#S)" fill-rule="nonzero" d="M38.463 24.852H65.39v6.778H38.463z"/>
      <path fill="url(#T)" fill-rule="nonzero" d="M68.503 14.685H35.35c-3.238 0-5.862 2.529-5.862 5.648 0 3.12 2.624 5.648 5.862 5.648h33.153c3.238 0 5.863-2.528 5.863-5.648 0-3.119-2.625-5.648-5.863-5.648z"/>
      <ellipse cx="36.78" cy="85.287" fill="url(#U)" fill-rule="nonzero" stroke="#2E4469" rx="7.293" ry="7.343"/>
      <ellipse cx="46.317" cy="97.148" fill="url(#V)" fill-rule="nonzero" stroke="#2E4469" rx="3.366" ry="3.389"/>
    </g>
    <path fill="url(#W)" fill-rule="nonzero" d="M73.26 17.031a5.978 5.978 0 0 0-3.635-1.216H36.472c-3.238 0-5.862 2.528-5.862 5.648 0 1.233.41 2.374 1.106 3.302-1.357-1.034-2.228-2.635-2.228-4.432 0-3.12 2.624-5.648 5.862-5.648h33.153c1.958 0 3.692.925 4.757 2.346z" transform="translate(8 142)"/>
    <path fill="url(#X)" d="M71.146 3.389a2.244 2.244 0 0 1 2.244 2.244v5.679a2.244 2.244 0 0 1-4.488 0v-5.68a2.244 2.244 0 0 1 2.244-2.243z" transform="matrix(-1 0 0 1 142.293 142)"/>
    <g transform="translate(.463 170.24)">
      <ellipse cx="52.638" cy="40.573" fill="#BC5AEC" filter="url(#Y)" rx="7.854" ry="7.907"/>
      <g transform="rotate(8 -2.646 45.73)">
        <path stroke="url(#Z)" stroke-width="2" d="M50.292 32.022L24.556 4.519 2.228 16.1l18.26 13.186"/>
        <ellipse cx="25.244" cy="3.954" fill="url(#aa)" rx="3.927" ry="3.954"/>
        <path fill="#FFF" fill-opacity=".2" d="M22.813 6.778a3.768 3.768 0 0 1-1.496-3.013c0-2.08 1.674-3.765 3.74-3.765 1.223 0 2.31.592 2.992 1.506a3.707 3.707 0 0 0-2.244-.753c-2.066 0-3.74 1.686-3.74 3.765 0 .848.278 1.63.748 2.26z"/>
        <ellipse cx="52.171" cy="33.324" fill="url(#ab)" rx="5.049" ry="5.083"/>
        <path fill="#FFF" fill-opacity=".2" d="M49.116 37.278a5.024 5.024 0 0 1-1.994-4.017c0-2.773 2.232-5.02 4.986-5.02 1.632 0 3.08.788 3.99 2.008a4.942 4.942 0 0 0-2.992-1.004c-2.754 0-4.987 2.248-4.987 5.02 0 1.13.371 2.174.997 3.013z"/>
        <ellipse cx="2.805" cy="16.38" fill="url(#ac)" rx="2.805" ry="2.824"/>
        <path fill="#FFF" fill-opacity=".2" d="M.997 18.074A2.512 2.512 0 0 1 0 16.066a2.502 2.502 0 0 1 2.493-2.51c.816 0 1.54.394 1.995 1.004a2.471 2.471 0 0 0-1.496-.502 2.502 2.502 0 0 0-2.493 2.51c0 .565.185 1.087.498 1.506z"/>
      </g>
    </g>
    <path fill="#334D77" d="M167.549 104H366.45c5.586 0 10.795 2.87 11.635 6.412l22.82 96.176c.84 3.541-4.075 6.412-10.98 6.412h-246.05c-6.904 0-10.687-3.199-10.78-6.412-.094-3.213-.43-4.558-.094-5.976 4.847-20.427 12.485-50.494 22.914-90.2.84-3.541 6.05-6.412 11.635-6.412z"/>
    <path fill="url(#ad)" d="M26.676 18.676h73.648a8 8 0 0 1 8 8v73.648a8 8 0 0 1-8 8H26.676a8 8 0 0 1-8-8V26.676a8 8 0 0 1 8-8z" transform="rotate(45 250.5 514.958)"/>
    <path fill="url(#ae)" d="M27.79 21.79h70.176a6 6 0 0 1 6 6v70.176a6 6 0 0 1-6 6H27.789a6 6 0 0 1-6-6V27.789a6 6 0 0 1 6-6z" transform="rotate(45 249.877 514.335)"/>
    <path fill="#2E4469" stroke="url(#af)" stroke-width=".2" d="M17.497 58.61a1.9 1.9 0 0 0-1.9 1.9v10.942a1.9 1.9 0 0 0 1.9 1.9H37.27a1.9 1.9 0 0 0 1.9-1.9V60.51a1.9 1.9 0 0 0-1.9-1.9H17.497z" opacity=".5" transform="rotate(45 214.383 517.439)"/>
    <path fill="#2E4469" stroke="url(#ag)" stroke-width=".2" d="M32.675 60.85L22.25 71.272l6.735 6.735a2.148 2.148 0 0 0 3.038 0l7.386-7.386a2.148 2.148 0 0 0 0-3.038l-6.735-6.735zm13.198 13.197a2.39 2.39 0 0 0-3.38 0l-7.044 7.044a2.39 2.39 0 0 0 0 3.38l25.292 25.292a2.39 2.39 0 0 0 3.38 0l7.044-7.043a2.39 2.39 0 0 0 0-3.38L45.873 74.046z" opacity=".5" transform="translate(374)"/>
    <path stroke="#55739B" d="M431.675 59.566l-13.843-12.918 24.726-12.039-10.323-8.788 6.131-17.954"/>
    <g transform="translate(415.584 43.832)">
      <circle cx="3.372" cy="3.372" r="3.372" fill="#5173AB"/>
      <path fill="#FFF" fill-opacity=".1" d="M1.349 6.07a3.372 3.372 0 1 1 4.72-4.72 3.372 3.372 0 0 0-4.72 4.72z"/>
    </g>
    <g transform="translate(439.186 32.593)">
      <circle cx="1.686" cy="1.686" r="1.686" fill="#5371A5"/>
      <path fill="#FFF" fill-opacity=".05" d="M.674 3.035a1.686 1.686 0 1 1 2.36-2.36 1.686 1.686 0 0 0-2.36 2.36z"/>
    </g>
    <path fill="url(#ah)" stroke="url(#ad)" stroke-width=".6" d="M83.06 36.898a2.164 2.164 0 0 0-3.06 0L50.386 66.514a2.164 2.164 0 0 0 0 3.06l25.023 25.023a2.164 2.164 0 0 0 3.06 0l29.616-29.616a2.164 2.164 0 0 0 0-3.06L83.061 36.898z" opacity=".5" transform="translate(374)"/>
    <path fill="#5173AB" d="M436.228 66.064c-.724-.699-1.28-1.385-1.668-2.06l2.633-2.725c.415.673.85 1.23 1.305 1.669.703.678 1.422.94 2.157.786.735-.154 1.562-.707 2.48-1.658l13.978-14.474 3.205 3.094L446.36 65.15c-1.741 1.803-3.47 2.787-5.189 2.952-1.717.165-3.365-.514-4.943-2.038zm26.04 8.078c-1.346 1.394-2.898 2.019-4.656 1.874-1.757-.146-3.511-1.064-5.262-2.754-1.612-1.557-2.74-3.245-3.381-5.063l2.938-3.042c.571 1.45 1.118 2.61 1.64 3.483.523.872 1.078 1.591 1.663 2.157.703.679 1.375 1.062 2.016 1.15.64.088 1.223-.14 1.747-.681a1.91 1.91 0 0 0 .532-1.048c.063-.396.04-.858-.07-1.386-.11-.527-.426-1.507-.95-2.937-.494-1.336-.775-2.43-.842-3.285a6.65 6.65 0 0 1 .27-2.495c.249-.808.723-1.575 1.424-2.3 1.32-1.367 2.81-2.004 4.471-1.91 1.661.093 3.291.912 4.89 2.456a12.084 12.084 0 0 1 1.973 2.456c.53.879 1.017 1.867 1.463 2.964l-3.493 1.548c-.48-1.116-.919-1.996-1.317-2.64a8.768 8.768 0 0 0-1.361-1.702c-.607-.586-1.211-.89-1.814-.915-.603-.024-1.129.197-1.578.661a1.978 1.978 0 0 0-.533.946c-.076.34-.069.75.024 1.227.092.477.42 1.492.985 3.044.746 2.055 1.046 3.682.9 4.882-.146 1.2-.706 2.303-1.678 3.31zm-28.751-16.378l-3.904 4.042a1.124 1.124 0 0 1-1.617-1.561l3.904-4.042a1.124 1.124 0 0 1 1.617 1.561z"/>
    <path stroke="#55739B" d="M436.376 81.482l-4.495 4.496m-19.107-7.868l-3.371-3.371" opacity=".15"/>
    <path stroke="url(#ai)" d="M64.785 114.637l49.852-51.764-50.575-49.386" transform="translate(374)"/>
    <g transform="translate(375.124 88.788)">
      <path stroke="url(#aj)" stroke-width="2" d="M29.735 8.683l-5.016 18.23-15.776-16.34-7.98 5.156"/>
      <circle cx="25.288" cy="27.535" r="3.934" fill="#FAC446"/>
      <path fill="#FFF" fill-opacity=".2" d="M22.852 30.345a3.746 3.746 0 1 1 5.245-5.245 3.746 3.746 0 0 0-5.245 5.245z"/>
      <circle cx="8.991" cy="10.677" r="2.81" fill="#E3B156"/>
      <path fill="#FFF" fill-opacity=".1" d="M7.18 12.363a2.497 2.497 0 1 1 3.497-3.497 2.497 2.497 0 0 0-3.497 3.497z"/>
      <rect width="16.184" height="5.619" x="22.478" y="5.619" fill="url(#ak)" rx="2" transform="rotate(45 30.57 8.43)"/>
    </g>
    <g>
      <path stroke="url(#al)" stroke-width="4" d="M68.942 39.478L37.682 6.9.339 90.926" transform="matrix(-1 0 0 1 355.281 16)"/>
      <ellipse cx="7.999" cy="7.949" fill="url(#am)" rx="7.999" ry="7.949" transform="translate(308.854 16)"/>
      <path fill="#FFF" fill-opacity=".2" d="M312.013 30.132a7.823 7.823 0 0 1-3.16-6.28c0-4.337 3.538-7.852 7.9-7.852a7.904 7.904 0 0 1 6.32 3.14 7.897 7.897 0 0 0-4.74-1.57c-4.362 0-7.9 3.515-7.9 7.851 0 1.768.589 3.4 1.58 4.711z"/>
    </g>
    <g>
      <path fill="url(#an)" d="M34.549 0H233.45c5.586 0 10.795 2.87 11.635 6.412l22.82 96.176c.84 3.541-4.075 6.412-10.98 6.412H11.074c-6.904 0-11.82-2.87-10.98-6.412l22.82-96.176C23.755 2.87 28.964 0 34.55 0z" transform="translate(133 97)"/>
      <path fill="url(#ao)" stroke="#2E4469" d="M113.157 6.813h124.311c3.179 0 6.143 2.475 6.621 5.53l12.502 84.314c.478 3.055-2.32 5.53-6.248 5.53H94.878c-3.93 0-6.727-2.475-6.249-5.53l17.907-84.314c.478-3.055 3.443-5.53 6.621-5.53z" opacity=".6" transform="matrix(-1 0 0 1 478.22 97)"/>
      <path fill="url(#ap)" stroke="#2E4469" d="M15.706 6.813h50.24c3.178 0 6.142 2.475 6.62 5.53l20.5 84.314c.478 3.055-2.32 5.53-6.249 5.53H28.64c-3.93 0-6.727-2.475-6.249-5.53L9.085 12.343c.478-3.055 3.442-5.53 6.62-5.53z" opacity=".6" transform="matrix(-1 0 0 1 235.203 97)"/>
    </g>
    <g transform="translate(240 104)">
      <ellipse cx="41" cy="16" fill="url(#aq)" opacity=".523" rx="41" ry="16"/>
      <path fill="url(#ar)" stroke="#72D6F9" d="M34.605 2.286h13.24c4.18 0 7.999 2.313 8.532 5.167l.966 5.167c.533 2.853-3.114 5.167-8.146 5.167H33.253c-5.032 0-8.679-2.314-8.146-5.167l.966-5.167c.533-2.854 4.353-5.167 8.532-5.167z"/>
      <path fill="#71D2F7" d="M36.56 7.188c.495-.477 1.211-.857 2.148-1.139a7.567 7.567 0 0 1 1.989-.332c.642-.017 1.208.057 1.7.22.49.164.867.412 1.13.745.286.36.395.71.33 1.05-.066.34-.235.76-.506 1.262-.226.421-.376.767-.449 1.037-.072.27-.037.54.107.807l.16.306-1.224.367-.33-.417c-.302-.381-.446-.735-.432-1.063.013-.328.109-.708.286-1.14.136-.327.218-.6.243-.817.025-.218-.045-.433-.212-.643-.188-.238-.47-.383-.845-.434-.374-.051-.799-.006-1.273.137a4.734 4.734 0 0 0-1.968 1.134l-.855-1.08zm6.55 6.623l-1.13-1.427 2.332-.7 1.129 1.426-2.332.701z"/>
    </g>
    <ellipse cx="268" cy="157" fill="url(#as)" opacity=".523" rx="41" ry="7"/>
    <ellipse cx="279.5" cy="101.5" fill="url(#at)" opacity=".225" rx="46.5" ry="13.5"/>
    <g>
      <path fill="url(#au)" stroke="#72D6F9" d="M4 0h37a4 4 0 0 1 4 4v26a4 4 0 0 1-4 4H4a4 4 0 0 1-4-4V4a4 4 0 0 1 4-4z" transform="rotate(30 -67.86 523.212)"/>
      <path fill="#71D2F7" d="M273.436 125.267l-1.59 2.755-13.655-1.76 8.336 10.973-1.59 2.755-10.71-14.18 1.591-2.755z"/>
    </g>
    <g>
      <path fill="url(#av)" stroke="#72D6F9" d="M4 0h25.002a4 4 0 0 1 4 4v16.818a4 4 0 0 1-4 4H4a4 4 0 0 1-4-4V4a4 4 0 0 1 4-4z" transform="rotate(30 47.235 528.399)"/>
      <path fill="#71D2F7" d="M270.745 69.251l1.186-1.972 9.89 1.468-5.928-8.063 1.186-1.973 7.613 10.42-1.185 1.971z"/>
    </g>
    <path fill="url(#aw)" d="M247 99h3a3 3 0 0 1 3 3v14a3 3 0 0 1-3 3h-3a3 3 0 0 1-3-3v-14a3 3 0 0 1 3-3z" transform="scale(-1 1) rotate(-54 0 596.709)"/>
    <g transform="translate(321 134)">
      <ellipse cx="98.233" cy="117.489" fill="url(#ax)" opacity=".298" rx="64.638" ry="13.534" transform="rotate(-17 98.233 117.49)"/>
      <path fill="url(#ay)" d="M47.361 24.014l67.093 44.029a3 3 0 0 1 1.346 2.729l-4.523 61.328a3 3 0 0 1-4.02 2.598L27.94 105.8a3 3 0 0 1-1.904-3.461l16.75-76.46a3 3 0 0 1 4.576-1.866z" transform="rotate(-40 70.887 79.2)"/>
      <path fill="#000" d="M30.87 50.122l67.813-8.01a3 3 0 0 1 2.786 1.225l36.037 50a3 3 0 0 1-1.311 4.537L68.619 125.14a3 3 0 0 1-3.78-1.39L28.565 54.492a3 3 0 0 1 2.306-4.371z" opacity=".1"/>
      <path fill="url(#az)" d="M50.786 16.324l64.009 41.988a3 3 0 0 1 1.346 2.729l-5.083 68.916a3 3 0 0 1-3.92 2.632l-77.683-25.28a3 3 0 0 1-2.002-3.495L46.21 18.19a3 3 0 0 1 4.576-1.867z" transform="rotate(-40 77.325 59.012)"/>
      <path fill="url(#aA)" d="M29.583 66.295l1.75-1.416 7.871 12.386-2.801 18.553-2.788 2.486 3.603-19.343z" filter="url(#aB)" opacity=".5" transform="rotate(-80 39.952 74.967)"/>
      <path fill="url(#aC)" d="M73.069 36.929l2.352-.403 16.741 29.187-1.991.898z" filter="url(#aD)" opacity=".5" transform="translate(11.117)"/>
      <g transform="translate(44.654 48.892)">
        <mask id="aG" fill="#fff">
          <use xlink:href="#aE"/>
        </mask>
        <path fill="#2E4469" stroke="url(#aF)" stroke-width=".2" d="M60.356 17.895l.059-.154 8.922-2.125.101.036 8.263 10.398-.052.158-9.524 2.61-.108-.038-7.661-10.885zM3.102 4.684l.075-.146 14.919-2.023.1.048L38.558 36.79l-.06.148-15.987 4.382-.115-.05L3.102 4.684zM42.22 38.449l.06-.148 24.765-6.788.108.039 8.704 12.366-.048.152-24.92 8.795-.118-.043-8.551-14.373zm8.09 17.004c.128 0 .256-.021.378-.065l27.442-9.685c.34-.12.605-.395.715-.741.11-.347.05-.725-.158-1.022l-9.133-12.976.055-.154 10.476-2.871c.373-.102.67-.387.79-.758s.046-.778-.195-1.083l-9.945-12.514a1.142 1.142 0 0 0-1.159-.403l-11.492 2.736a1.15 1.15 0 0 0-.81.717c-.134.36-.083.765.139 1.08l8.202 11.653-.055.154L41 36.253l-.112-.045L19.74.662A1.145 1.145 0 0 0 18.604.11L1.094 2.485c-.372.05-.696.282-.867.619-.172.337-.169.737.007 1.072L20.84 43.245c.252.477.797.715 1.314.573l17.626-4.831.112.045 9.436 15.86c.208.35.583.561.984.561z" mask="url(#aG)"/>
      </g>
      <path stroke="url(#aH)" stroke-linejoin="round" stroke-width="2" d="M66.645 38.708l-3.817-15.643 20.349-4.02 25.233 25.922-5.776 19.755"/>
      <g transform="translate(79.69 15.662)">
        <ellipse cx="3.934" cy="3.947" fill="#F1476C" rx="3.934" ry="3.947"/>
        <path fill="#FFF" fill-opacity=".2" d="M1.499 6.767A3.758 3.758 0 0 1 0 3.759 3.753 3.753 0 0 1 3.747 0c1.226 0 2.314.59 2.998 1.504A3.722 3.722 0 0 0 4.496.752 3.753 3.753 0 0 0 .75 4.512c0 .846.28 1.627.75 2.255z"/>
      </g>
      <path stroke="url(#aI)" stroke-linejoin="round" stroke-width="2" d="M9.998 31.676L.507 20.659l20.35-4.02L46.09 42.561 29.433 55.264" transform="rotate(-68 67.463 44.587)"/>
      <g transform="rotate(-4 675.56 -244.442)">
        <ellipse cx="3.934" cy="30.947" fill="#F1476C" rx="3.934" ry="3.947"/>
        <ellipse cx="37.934" cy="19.947" fill="#F1476C" rx="3.934" ry="3.947"/>
        <ellipse cx="88.867" cy="4.875" fill="#F1476C" rx="3.934" ry="3.947"/>
        <path fill="#FFF" fill-opacity=".2" d="M1.499 33.767A3.758 3.758 0 0 1 0 30.759 3.753 3.753 0 0 1 3.747 27c1.226 0 2.314.59 2.998 1.504a3.722 3.722 0 0 0-2.249-.752 3.753 3.753 0 0 0-3.747 3.76c0 .846.28 1.627.75 2.255zm34-11A3.758 3.758 0 0 1 34 19.759 3.753 3.753 0 0 1 37.747 16c1.226 0 2.314.59 2.998 1.504a3.722 3.722 0 0 0-2.249-.752 3.753 3.753 0 0 0-3.747 3.76c0 .846.28 1.627.75 2.255zM86.431 7.695a3.758 3.758 0 0 1-1.498-3.008A3.753 3.753 0 0 1 88.68.927c1.226 0 2.314.591 2.998 1.504a3.722 3.722 0 0 0-2.249-.751 3.753 3.753 0 0 0-3.747 3.759c0 .846.279 1.627.75 2.256z"/>
      </g>
      <path stroke="url(#aJ)" d="M103.297 65.776l11.644-2.746 9.764 12.243"/>
      <path stroke="url(#aK)" d="M62.828 85.586l3.644 6.424 22.95-6.139"/>
      <ellipse cx="62.734" cy="83.237" fill="#F1476C" filter="url(#aL)" rx="4.403" ry="4.417"/>
      <g transform="rotate(97 -3.312 69.834)">
        <ellipse cx="2.248" cy="2.256" fill="#F1476C" rx="2.248" ry="2.256"/>
        <path fill="#FFF" fill-opacity=".2" d="M.75 3.383A1.879 1.879 0 0 1 0 1.88C0 .842.839 0 1.874 0c.612 0 1.157.295 1.498.752A1.861 1.861 0 0 0 2.248.376a1.877 1.877 0 0 0-1.873 1.88c0 .423.14.813.374 1.127z"/>
      </g>
      <g transform="translate(99.924 63.03)">
        <ellipse cx="2.248" cy="2.256" fill="#F1476C" rx="2.248" ry="2.256"/>
        <path fill="#FFF" fill-opacity=".2" d="M.75 3.383A1.879 1.879 0 0 1 0 1.88C0 .842.839 0 1.874 0c.612 0 1.157.295 1.498.752A1.861 1.861 0 0 0 2.248.376a1.877 1.877 0 0 0-1.873 1.88c0 .423.14.813.374 1.127z"/>
      </g>
      <ellipse cx="102.079" cy="65.192" fill="#F1476C" filter="url(#aM)" rx="4.403" ry="4.417"/>
    </g>
    <g>
      <path stroke="url(#aN)" stroke-width="4" d="M136.953 71.879L83.815 10.558 4.975 64.18l41.688 267.38" transform="rotate(8 -70.872 898.462)"/>
      <g transform="rotate(8 -112.742 1430.116)">
        <ellipse cx="10.182" cy="10.203" fill="url(#aO)" rx="10.182" ry="10.203"/>
        <path fill="#FFF" fill-opacity=".2" d="M3.878 17.49A9.709 9.709 0 0 1 0 9.718C0 4.35 4.342 0 9.697 0a9.676 9.676 0 0 1 7.758 3.886 9.642 9.642 0 0 0-5.818-1.943c-5.356 0-9.698 4.35-9.698 9.717a9.68 9.68 0 0 0 1.94 5.83z"/>
      </g>
      <g transform="rotate(8 -492.385 868.987)">
        <ellipse cx="5.657" cy="5.668" fill="url(#aP)" rx="5.657" ry="5.668"/>
        <path fill="#FFF" fill-opacity=".2" d="M2.011 9.07A5.034 5.034 0 0 1 0 5.037 5.033 5.033 0 0 1 5.028 0c1.645 0 3.106.791 4.023 2.015a5 5 0 0 0-3.017-1.007 5.033 5.033 0 0 0-5.028 5.038c0 1.134.374 2.181 1.005 3.023z"/>
      </g>
    </g>
    <g stroke="#76E2FF" stroke-linecap="round" stroke-linejoin="round" stroke-width="2" opacity=".254">
      <path d="M186 110h33.37m-51.414 0H181m-14.515 6.5h22.912m4.603 0h24.103M162.092 136.5h52.88m-54.487 6.5h22.912M206 143h7.876M188 143h14M203 123.5h14m-52.103 0H198m-34.525 6.5h23.437m4.603 0h24.461M159 150h53.485M175 156.5h5.912m-23.532 0H171m14.515 0h26.147M195 163.5h15.485m-54.739 0H190m-36 6.5h24.912m4.603 0h26.147" style="mix-blend-mode:luminosity" opacity=".291"/>
    </g>
  </g>
</svg>
