<svg xmlns="http://www.w3.org/2000/svg" xmlns:xlink="http://www.w3.org/1999/xlink" width="122" height="122">
  <defs>
    <circle id="a" cx="60" cy="60" r="60"/>
    <linearGradient id="b" x1="51.936%" x2="50%" y1="136.31%" y2="0%">
      <stop offset="0%" stop-color="#5B79A2" stop-opacity=".526"/>
      <stop offset="100%" stop-color="#2E4469"/>
    </linearGradient>
    <linearGradient id="c" x1="22.848%" x2="22.848%" y1="100%" y2="7.02%">
      <stop offset="0%" stop-color="#F4487D" stop-opacity="0"/>
      <stop offset="100%" stop-color="#FF6E9C"/>
    </linearGradient>
    <linearGradient id="e" x1="98.123%" x2="3.156%" y1="50%" y2="50%">
      <stop offset="0%" stop-color="#C4D6EB" stop-opacity=".676"/>
      <stop offset="100%" stop-color="#91ACD2" stop-opacity="0"/>
    </linearGradient>
    <linearGradient id="f" x1="169.517%" x2="3.156%" y1="317.819%" y2="50%">
      <stop offset="0%" stop-color="#C4D6EB" stop-opacity=".676"/>
      <stop offset="100%" stop-color="#91ACD2" stop-opacity="0"/>
    </linearGradient>
    <filter id="g" width="201.5%" height="201.5%" x="-50.8%" y="-50.8%" filterUnits="objectBoundingBox">
      <feGaussianBlur in="SourceGraphic" stdDeviation="2.2"/>
    </filter>
    <linearGradient id="h" x1="-69.072%" x2="85.083%" y1="-39.599%" y2="55.347%">
      <stop offset="0%" stop-color="#F4487D" stop-opacity=".16"/>
      <stop offset="100%" stop-color="#FF6E9C"/>
    </linearGradient>
    <linearGradient id="i" x1="94.668%" x2="22.848%" y1="94.914%" y2="7.02%">
      <stop offset="0%" stop-color="#F4487D"/>
      <stop offset="100%" stop-color="#FF6E9C"/>
    </linearGradient>
    <circle id="j" cx="60" cy="60" r="60"/>
  </defs>
  <g fill="none" fill-rule="evenodd" transform="translate(1 1)">
    <mask id="d" fill="#fff">
      <use xlink:href="#a"/>
    </mask>
    <use fill="#24385A" xlink:href="#a"/>
    <path fill="url(#b)" stroke="url(#c)" stroke-width="3" d="M-6.354 85.93c-4.866-.37-8.027-2.628-11.88-7.237-.214-.255-1.159-1.4-1.41-1.7-2.767-3.297-4.51-4.515-7.132-4.515-4.263 0-8.952 2.965-13.617 7.964a57.15 57.15 0 0 0-4.61 5.654c-.256.357-.496.7-.72 1.028C10 108.37 46.486 119 63.5 119c23.859 0 48.982-10.564 75.375-31.758a10.72 10.72 0 0 0-.285-1.022 12.654 12.654 0 0 0-2.334-4.155c-3.239-3.867-8.785-6.221-17.343-6.221-5.278 0-9.296-2.597-12.5-7.48-2.334-3.56-3.773-7.102-6.609-15.37l-.114-.335c-2.765-8.06-4.2-11.572-6.409-14.9-2.775-4.183-6.034-6.259-10.375-6.259-4.038 0-7.183 1.972-9.943 5.93-2.222 3.186-3.817 6.805-6.51 14.117l-.557 1.512c-2.656 7.219-4.127 10.624-6.262 13.818-2.91 4.355-6.412 6.68-10.879 6.68-5.324 0-7.943-2.101-11.654-7.6l-.541-.803c-3.53-5.219-5.991-7.071-11.296-7.084-6.772-.017-10.508 4.885-15.328 17.26-.261.67-1.158 2.997-1.313 3.397-2.053 5.29-3.386 8.192-5.1 10.662C1.216 92.713-1.49 94.5-4.854 94.5h-1.5v-8.57z" mask="url(#d)"/>
    <path fill="url(#b)" d="M-3 114.746C13.664 118.916 31.401 121 50.212 121c14.49 0 31.82-2.085 51.99-6.254.23 0-1.9-18.336-16.862-18.336-8.416 0-4.208-22.234-16.722-22.234-12.513 0-5.161 18.44-18.406 18.44-13.242 0-11.166-10.741-24.681-10.741S19.266 59.653 3.35 59.653c-15.917 0-10.6 29.169-29.117 29.169C-44.283 88.822-3 114.746-3 114.746z" mask="url(#d)"/>
    <path fill="url(#c)" d="M-11.146 72.9c-3.044 7.492-5.918 14.57-14.62 14.57-8.082 0-14.67 4.024-19.055 11.638-3.246 5.635-4.127 11.198-4.163 11.431a1.352 1.352 0 0 0 1.314 1.56h.05a1.354 1.354 0 0 0 1.305-1.147c.008-.052.858-5.358 3.871-10.559 3.929-6.78 9.541-10.219 16.678-10.219 10.517 0 14.026-8.635 17.121-16.254C-5.83 66.99-3.4 61.005 3.35 61.005c7.311 0 8.992 5.038 10.939 10.868 1.776 5.321 3.789 11.354 11.243 11.354 6.253 0 8.83 2.449 11.557 5.04 2.811 2.673 5.997 5.701 13.123 5.701 7.72 0 9.444-5.755 10.83-10.38 1.496-4.996 2.662-8.06 7.576-8.06 5.438 0 7.113 4.659 9.048 11.764 1.401 5.148 2.851 10.472 7.675 10.472 13.567 0 15.449 12.625 15.523 13.16a1.351 1.351 0 1 0 2.676-.356c-.02-.155-2.24-15.51-18.199-15.51-2.576 0-3.634-3.202-5.07-8.478-1.669-6.128-3.746-13.755-11.653-13.755-7.172 0-8.761 5.306-10.162 9.987-1.57 5.24-2.809 8.452-8.244 8.452-6.05 0-8.466-2.298-11.267-4.959-2.85-2.71-6.083-5.783-13.413-5.783-5.244 0-6.715-3.613-8.683-9.507-1.89-5.664-4.244-12.714-13.499-12.714-8.565 0-11.58 7.422-14.496 14.599" mask="url(#d)"/>
    <g stroke="url(#e)" stroke-width=".5" mask="url(#d)" opacity=".465">
      <path d="M-2.75 11.25h123.5v98.5H-2.75z"/>
      <path d="M-2.75 24.25h123.5v73.5H-2.75z"/>
      <path d="M-2.75 38.25h123.5v46.5H-2.75z"/>
      <path d="M-2.75 53.25h123.5v16.5H-2.75z"/>
    </g>
    <g stroke="url(#f)" stroke-width=".5" mask="url(#d)" opacity=".235">
      <path d="M9.25 120.75V-2.75h98.5v123.5z"/>
      <path d="M22.25 120.75V-2.75h73.5v123.5z"/>
      <path d="M36.25 120.75V-2.75h46.5v123.5z"/>
      <path d="M51.25 120.75V-2.75h16.5v123.5z"/>
    </g>
    <g mask="url(#d)">
      <g transform="rotate(16 8.003 -14.255)">
        <circle cx="92.224" cy="6.539" r="6.5" fill="#F1476C" filter="url(#g)"/>
        <path stroke="url(#h)" stroke-linejoin="round" stroke-width="2" d="M.336 69.872L33.679 39.02l18.034 11.186L92.84 5.896"/>
        <g transform="translate(88.724 3.039)">
          <circle cx="3.5" cy="3.5" r="3.5" fill="#F1476C"/>
          <path fill="#FFF" fill-opacity=".2" d="M1.333 6A3.333 3.333 0 1 1 6 1.333 3.333 3.333 0 0 0 1.333 6z"/>
        </g>
        <g transform="translate(30 35)">
          <circle cx="3.5" cy="3.5" r="3.5" fill="#F1476C"/>
          <path fill="#FFF" fill-opacity=".2" d="M1.333 6A3.333 3.333 0 1 1 6 1.333 3.333 3.333 0 0 0 1.333 6z"/>
        </g>
        <g transform="translate(49 47)">
          <circle cx="3.5" cy="3.5" r="3.5" fill="#F1476C"/>
          <path fill="#FFF" fill-opacity=".2" d="M1.333 6A3.333 3.333 0 1 1 6 1.333 3.333 3.333 0 0 0 1.333 6z"/>
        </g>
      </g>
    </g>
    <use stroke="url(#i)" stroke-width="2" xlink:href="#j"/>
  </g>
</svg>
