<svg xmlns="http://www.w3.org/2000/svg" xmlns:xlink="http://www.w3.org/1999/xlink" width="165" height="120"><defs><radialGradient id="a" cx="52.436%" cy="42.955%" r="216.67%" fx="52.436%" fy="42.955%" gradientTransform="matrix(-.16668 0 0 -.21136 .612 .52)"><stop offset="0%" stop-color="#433D3D"/><stop offset="100%" stop-opacity="0"/></radialGradient><linearGradient id="b" x1="54.872%" x2="54.872%" y1="62.175%" y2="100%"><stop offset="0%" stop-color="#1A273E"/><stop offset="100%" stop-color="#2E4469"/></linearGradient><linearGradient id="c" x1="30.414%" x2="50%" y1="0%" y2="100%"><stop offset="0%" stop-color="#5B79A2"/><stop offset="100%" stop-color="#2E4469"/></linearGradient><linearGradient id="d" x1="98.741%" x2="1.259%" y1="48.741%" y2="48.741%"><stop offset="0%" stop-color="#21C8F6"/><stop offset="100%" stop-color="#637BFF"/></linearGradient><linearGradient id="e" x1="34.594%" x2="60.398%" y1="-29.447%" y2="100%"><stop offset="0%" stop-color="#5B79A2"/><stop offset="100%" stop-color="#2E4469"/></linearGradient><linearGradient id="f" x1="75.874%" x2="92.229%" y1="33.079%" y2="100%"><stop offset="0%" stop-color="#5B79A2"/><stop offset="100%" stop-color="#2E4469"/></linearGradient><linearGradient id="g" x1="12.8%" x2="107.421%" y1=".616%" y2="98.781%"><stop offset="0%" stop-color="#587CB9"/><stop offset="100%" stop-color="#2E4469" stop-opacity="0"/></linearGradient><linearGradient id="h" x1="4.47%" x2="68.52%" y1="0%" y2="100%"><stop offset="0%" stop-color="#405A7C"/><stop offset="100%" stop-color="#20304C"/></linearGradient><linearGradient id="i" x1="4.47%" x2="117.825%" y1="0%" y2="133.334%"><stop offset="0%" stop-color="#5B79A2"/><stop offset="100%" stop-color="#2E4469"/></linearGradient><linearGradient id="j" x1="132.225%" x2="24.379%" y1="116.086%" y2="5.536%"><stop offset="0%" stop-color="#76E1FF"/><stop offset="100%" stop-color="#637BFF" stop-opacity="0"/></linearGradient><linearGradient id="k" x1="50%" x2="80.937%" y1="9.186%" y2="100%"><stop offset="0%" stop-color="#76E1FF"/><stop offset="100%" stop-color="#637BFF" stop-opacity="0"/></linearGradient><linearGradient id="l" x1="12.205%" x2="108.596%" y1="0%" y2="100%"><stop offset="0%" stop-color="#1A273E"/><stop offset="100%" stop-color="#2E4469"/></linearGradient><path id="m" d="M4.899 0h26.406a4.899 4.899 0 0 1 4.899 4.899V25.25a4.899 4.899 0 0 1-3.162 4.58c-3.13 1.187-7.903 1.78-14.318 1.78-6.802 0-11.984-.666-15.544-2A4.899 4.899 0 0 1 0 25.022V4.899A4.899 4.899 0 0 1 4.899 0z"/><linearGradient id="o" x1="153.548%" x2="24.379%" y1="159.443%" y2="5.536%"><stop offset="0%" stop-color="#76E1FF"/><stop offset="100%" stop-color="#637BFF" stop-opacity="0"/></linearGradient><path id="n" d="M4.899 0h26.406a4.899 4.899 0 0 1 4.899 4.899V25.25a4.899 4.899 0 0 1-3.162 4.58c-3.13 1.187-7.903 1.78-14.318 1.78-6.802 0-11.984-.666-15.544-2A4.899 4.899 0 0 1 0 25.022V4.899A4.899 4.899 0 0 1 4.899 0z"/><linearGradient id="r" x1="50%" x2="50%" y1="0%" y2="97.483%"><stop offset="0%" stop-color="#21C8F6"/><stop offset="100%" stop-color="#637BFF"/></linearGradient><path id="q" d="M41.809 33.65a6.345 6.345 0 0 0-1.879-4.469 6.344 6.344 0 0 0-4.447-1.857"/><linearGradient id="s" x1="34.652%" y1="13.21%" y2="100%"><stop offset="0%" stop-color="#76E1FF"/><stop offset="100%" stop-color="#637BFF" stop-opacity="0"/></linearGradient></defs><g fill="none" fill-rule="evenodd"><g transform="translate(32 14)"><ellipse cx="49.992" cy="97.178" fill="url(#a)" opacity=".555" rx="49.992" ry="8.333"/><g transform="translate(13.032)"><path fill="url(#b)" d="M9.843 50.765h57.3a6.299 6.299 0 0 1 6.22 7.289l-4.54 28.508a12.597 12.597 0 0 1-12.44 10.616h-35.78c-6.193 0-11.467-4.5-12.44-10.616l-4.54-28.508a6.299 6.299 0 0 1 6.22-7.29z"/><path fill="url(#c)" d="M7.883 47.765h61.22a6.299 6.299 0 0 1 6.203 7.39l-4.684 26.61a12.597 12.597 0 0 1-12.406 10.413H18.77A12.597 12.597 0 0 1 6.364 81.765L1.68 55.155a6.299 6.299 0 0 1 6.203-7.39z"/><path fill="url(#b)" d="M11.909 47.765a6.299 6.299 0 0 0-6.223 7.274L9.84 81.532a12.597 12.597 0 0 0 12.445 10.646H18.77A12.597 12.597 0 0 1 6.364 81.765L1.68 55.155a6.299 6.299 0 0 1 6.203-7.39h4.026zm53.168 0h4.026a6.299 6.299 0 0 1 6.203 7.39l-4.684 26.61a12.597 12.597 0 0 1-12.406 10.413H54.7a12.597 12.597 0 0 0 12.445-10.646L71.3 55.04a6.299 6.299 0 0 0-6.223-7.274z" opacity=".507"/><path fill="#243552" d="M20.233 70.345h35.66a.956.956 0 1 1 0 1.912h-35.66a.956.956 0 0 1 0-1.912z"/><path fill="url(#d)" d="M20.233 73.819h35.66a.956.956 0 0 1 0 1.912h-35.66a.956.956 0 0 1 0-1.912z"/><path fill="#243552" d="M20.504 77.196h35.66a.956.956 0 1 1 0 1.912h-35.66a.956.956 0 0 1 0-1.912zm0 3.377h35.66a.956.956 0 1 1 0 1.912h-35.66a.956.956 0 0 1 0-1.912z"/><path fill="url(#e)" d="M17.958 47.939H59.05a6.299 6.299 0 0 1 6.006 8.197l-.604 1.908a12.597 12.597 0 0 1-12.01 8.8H24.566a12.597 12.597 0 0 1-12.011-8.8l-.603-1.908a6.299 6.299 0 0 1 6.005-8.197z"/><path fill="url(#f)" d="M8.16 47.939h60.69a6.299 6.299 0 0 1 5.78 8.803l-1.089 2.513a12.597 12.597 0 0 1-11.558 7.588H15.029c-5.02 0-9.562-2.981-11.559-7.588l-1.089-2.513a6.299 6.299 0 0 1 5.78-8.803z"/><path fill="url(#g)" d="M8.16 47.939h60.69H8.16zm66.683 4.35a6.299 6.299 0 0 1-.212 4.452l-1.09 2.514a12.597 12.597 0 0 1-11.558 7.588H15.029c-5.02 0-9.562-2.981-11.559-7.588l-1.089-2.513a6.275 6.275 0 0 1-.212-4.446 5.432 5.432 0 0 0 .494 3.595l.578 1.123a12.597 12.597 0 0 0 11.2 6.83h48.13a12.6 12.6 0 0 0 11.2-6.83l.578-1.123a5.455 5.455 0 0 0 .494-3.601z"/><path fill="url(#h)" d="M30.156 50.718h17.059c1.525 0 2.998.553 4.146 1.557l2.788 2.438a2.28 2.28 0 0 1-1.5 3.994H24.722a2.28 2.28 0 0 1-1.5-3.994l2.788-2.438a6.299 6.299 0 0 1 4.146-1.557z"/><path fill="url(#f)" d="M33.699 35.433h10.586a4.899 4.899 0 0 1 4.899 4.899V52.26a2.8 2.8 0 0 1-2.8 2.799H31.6a2.8 2.8 0 0 1-2.8-2.8V40.333a4.899 4.899 0 0 1 4.9-4.9z"/><path fill="url(#i)" d="M26.27 0h23.643c5.798 0 10.498 4.7 10.498 10.498v23.6c0 6.957-5.64 12.597-12.597 12.597H28.369c-6.957 0-12.597-5.64-12.597-12.597v-23.6C15.772 4.7 20.472 0 26.27 0z"/><path stroke="url(#j)" stroke-width=".756" d="M26.27.378c-5.59 0-10.12 4.53-10.12 10.12v23.6c0 6.748 5.47 12.219 12.22 12.219h19.444c6.748 0 12.219-5.47 12.219-12.22v-23.6c0-5.588-4.531-10.119-10.12-10.119H26.27z"/><path stroke="url(#k)" stroke-width=".756" d="M26.27.378c-5.59 0-10.12 4.53-10.12 10.12v23.6c0 6.748 5.47 12.219 12.22 12.219h19.444c6.748 0 12.219-5.47 12.219-12.22v-23.6c0-5.588-4.531-10.119-10.12-10.119H26.27z"/><ellipse cx="25.064" cy="3.995" fill="url(#d)" rx="1.406" ry="1.39"/><path fill="url(#l)" d="M59.583 31.041v3.474c0 6.957-5.64 12.597-12.597 12.597h-17.74c-6.958 0-12.598-5.64-12.598-12.597v-3.474c0 6.958 5.64 12.598 12.597 12.598h17.741c6.957 0 12.597-5.64 12.597-12.598z"/><g transform="translate(20.153 6.948)"><use fill="#243552" xlink:href="#m"/><mask id="p" fill="#fff"><use xlink:href="#n"/></mask><path stroke="url(#o)" stroke-width=".756" d="M4.899.378a4.52 4.52 0 0 0-4.521 4.52v20.125a4.52 4.52 0 0 0 2.934 4.233c3.51 1.316 8.65 1.978 15.412 1.978 6.373 0 11.105-.589 14.184-1.756a4.52 4.52 0 0 0 2.918-4.227V4.899A4.52 4.52 0 0 0 31.305.378H4.899z"/><ellipse cx="10.192" cy="5.905" fill="url(#g)" mask="url(#p)" rx="20.033" ry="19.801"/></g><path fill="url(#d)" d="M28.444 15.632H47.68a2.157 2.157 0 0 1 0 4.314H28.444a2.157 2.157 0 1 1 0-4.314z" opacity=".2"/><g stroke-linecap="round" transform="rotate(135 38.646 30.487)"><use stroke="#2E4469" stroke-width="4.199" xlink:href="#q"/><use stroke="url(#r)" stroke-width="1.05" xlink:href="#q"/></g><path d="M42.872 4.933h-1.13a.558.558 0 0 1-.56-.556c0-.307.251-.556.56-.556h1.13c.309 0 .56.249.56.556a.558.558 0 0 1-.56.556zm2.108-1.529h-1.129a.558.558 0 0 1-.56-.555c0-.307.25-.556.56-.556h1.13c.309 0 .56.249.56.556a.558.558 0 0 1-.56.555zm5.763 1.529h-6.185a.56.56 0 0 1-.564-.556.56.56 0 0 1 .564-.556h6.183a.56.56 0 0 1 .563.556.56.56 0 0 1-.563.556h.002zm2.084-1.529H46.69c-.324 0-.586-.249-.586-.555 0-.307.262-.556.586-.556h6.138c.324 0 .586.249.586.556 0 .306-.262.555-.586.555z" fill="#243552"/></g></g><g transform="translate(5 19)"><g transform="scale(-1 1) rotate(48 -19.89 -44.674)"><path stroke="url(#s)" stroke-width="2" d="M58.899 46.973L31.335 3.486 1.916 19.542"/><circle cx="31.5" cy="3.5" r="3.5" fill="url(#r)"/><path fill="#FFF" fill-opacity=".2" d="M29.333 6A3.333 3.333 0 1 1 34 1.333 3.333 3.333 0 0 0 29.333 6z"/></g><rect width="4" height="11" x="52" y="9" fill="url(#r)" rx="2"/></g><g transform="matrix(-1 0 0 1 151 27)"><g transform="scale(-1 1) rotate(48 -20.505 -44.943)"><path stroke="url(#s)" stroke-width="2" d="M58.899 32.973L36.604 5.126l-24.2 8.486"/><circle cx="35.5" cy="5.5" r="3.5" fill="url(#r)"/></g><rect width="4" height="11" x="42" y="12" fill="url(#r)" rx="2"/></g></g></svg>