<svg xmlns="http://www.w3.org/2000/svg" xmlns:xlink="http://www.w3.org/1999/xlink" width="122" height="122" viewBox="0 0 122 122">
    <defs>
        <radialGradient id="a" cy="40.802%" r="318.381%" fx="50%" fy="40.802%" gradientTransform="matrix(-.17122 0 0 -.94864 .586 .795)">
            <stop offset="0%"/>
            <stop offset="100%" stop-opacity=".002"/>
        </radialGradient>
        <filter id="b" width="120.2%" height="217.7%" x="-10.1%" y="-58.9%" filterUnits="objectBoundingBox">
            <feGaussianBlur in="SourceGraphic" stdDeviation="2.85"/>
        </filter>
        <circle id="c" cx="60" cy="60" r="60"/>
        <linearGradient id="e" x1="24.379%" x2="84.171%" y1="5.536%" y2="97.907%">
            <stop offset="0%" stop-color="#76E1FF"/>
            <stop offset="100%" stop-color="#637BFF" stop-opacity="0"/>
        </linearGradient>
        <circle id="d" cx="60" cy="60" r="60"/>
        <linearGradient id="f" x1="100%" x2="28.977%" y1="81.195%" y2="91.27%">
            <stop offset="0%" stop-color="#76E1FF"/>
            <stop offset="100%" stop-color="#637BFF" stop-opacity="0"/>
        </linearGradient>
        <linearGradient id="g" x1="92.749%" x2="22.678%" y1="22.524%" y2="63.5%">
            <stop offset="0%" stop-color="#5B79A2"/>
            <stop offset="100%" stop-color="#2E4469"/>
        </linearGradient>
        <linearGradient id="h" x1="13.328%" x2="37.282%" y1="2.973%" y2="32.079%">
            <stop offset="0%" stop-color="#76E1FF"/>
            <stop offset="100%" stop-color="#637BFF" stop-opacity="0"/>
        </linearGradient>
        <linearGradient id="i" x1="12.8%" x2="107.421%" y1=".616%" y2="98.781%">
            <stop offset="0%" stop-color="#587CB9"/>
            <stop offset="100%" stop-color="#2E4469" stop-opacity="0"/>
        </linearGradient>
        <filter id="j" width="192.3%" height="192.3%" x="-46.2%" y="-46.2%" filterUnits="objectBoundingBox">
            <feGaussianBlur in="SourceGraphic" stdDeviation="2"/>
        </filter>
        <linearGradient id="k" x1="100%" x2="-71.167%" y1="50%" y2="100%">
            <stop offset="0%" stop-color="#5B79A2"/>
            <stop offset="100%" stop-color="#2E4469"/>
        </linearGradient>
        <linearGradient id="l" x1="-24.704%" x2="91.923%" y1="35.072%" y2="50%">
            <stop offset="0%" stop-color="#5B79A2"/>
            <stop offset="100%" stop-color="#2E4469"/>
        </linearGradient>
        <linearGradient id="m" x1="84.332%" x2="22.678%" y1="24.613%" y2="63.5%">
            <stop offset="0%" stop-color="#5B79A2"/>
            <stop offset="100%" stop-color="#2E4469"/>
        </linearGradient>
        <linearGradient id="n" x1="50%" x2="50%" y1="0%" y2="97.483%">
            <stop offset="0%" stop-color="#21C8F6"/>
            <stop offset="100%" stop-color="#637BFF"/>
        </linearGradient>
        <linearGradient id="o" x1="0%" x2="77.821%" y1="88.748%" y2="-42.959%">
            <stop offset="0%" stop-color="#76E1FF"/>
            <stop offset="100%" stop-color="#637BFF" stop-opacity="0"/>
        </linearGradient>
    </defs>
    <g fill="none" fill-rule="evenodd" transform="translate(1 1)">
        <ellipse cx="58.542" cy="101.993" fill="url(#a)" filter="url(#b)" opacity=".523" rx="42.421" ry="7.264" transform="rotate(1 58.542 101.993)"/>
        <use fill="#000" fill-opacity=".152" xlink:href="#c"/>
        <use stroke="url(#e)" xlink:href="#d"/>
        <g transform="translate(16 17)">
            <path fill="#2E4469" d="M56.892 1.709a12.051 12.051 0 0 0-.888 1.906c-1.38 3.79-.728 7.834 1.401 10.984a12.013 12.013 0 0 0-1.3 2.568c-2.313 6.356 1.086 13.428 7.59 15.796a12.653 12.653 0 0 0 9.044-.122 12.63 12.63 0 0 0 5.207 4.76c.36 4.702 3.472 9.023 8.28 10.773.801.291 1.612.498 2.422.624C85.883 70.427 67.17 87 44.5 87 19.923 87 0 67.524 0 43.5S19.923 0 44.5 0c4.3 0 8.458.596 12.392 1.709z"/>
            <path stroke="url(#f)" stroke-width="1.1" d="M56.892 1.709a12.051 12.051 0 0 0-.888 1.906c-1.38 3.79-.728 7.834 1.401 10.984a12.013 12.013 0 0 0-1.3 2.568c-2.313 6.356 1.086 13.428 7.59 15.796a12.653 12.653 0 0 0 9.044-.122 12.63 12.63 0 0 0 5.207 4.76c.36 4.702 3.472 9.023 8.28 10.773.801.291 1.612.498 2.422.624C85.883 70.427 67.17 87 44.5 87 19.923 87 0 67.524 0 43.5S19.923 0 44.5 0c4.3 0 8.458.596 12.392 1.709z" opacity=".218"/>
            <path fill="url(#g)" d="M54.32 1.725a12.02 12.02 0 0 0-.994 2.084 11.854 11.854 0 0 0 1.195 10.548c-.5.76-.92 1.59-1.244 2.483-2.234 6.137.872 12.902 6.937 15.11a11.57 11.57 0 0 0 8.469-.214 11.564 11.564 0 0 0 4.823 4.521c.288 4.518 3.155 8.64 7.638 10.272.847.308 1.706.511 2.565.616C81.202 67.914 63.712 84 42.509 84 19.584 84 1 65.196 1 42S19.584 0 42.509 0c4.103 0 8.067.602 11.81 1.725z"/>
            <path fill="url(#g)" d="M54.32 1.725a12.02 12.02 0 0 0-.994 2.084 11.854 11.854 0 0 0 1.195 10.548c-.5.76-.92 1.59-1.244 2.483-2.234 6.137.872 12.902 6.937 15.11a11.57 11.57 0 0 0 8.469-.214 11.564 11.564 0 0 0 4.823 4.521c.288 4.518 3.155 8.64 7.638 10.272.847.308 1.706.511 2.565.616C81.202 67.914 63.712 84 42.509 84 19.584 84 1 65.196 1 42S19.584 0 42.509 0c4.103 0 8.067.602 11.81 1.725z"/>
            <path stroke="url(#h)" stroke-width="1.1" d="M54.32 1.725a12.02 12.02 0 0 0-.994 2.084 11.854 11.854 0 0 0 1.195 10.548c-.5.76-.92 1.59-1.244 2.483-2.234 6.137.872 12.902 6.937 15.11a11.57 11.57 0 0 0 8.469-.214 11.564 11.564 0 0 0 4.823 4.521c.288 4.518 3.155 8.64 7.638 10.272.847.308 1.706.511 2.565.616C81.202 67.914 63.712 84 42.509 84 19.584 84 1 65.196 1 42S19.584 0 42.509 0c4.103 0 8.067.602 11.81 1.725z"/>
            <g fill="url(#i)" transform="translate(25 42)">
                <rect width="5.408" height="1.2" x="4.375" rx=".6"/>
                <rect width="2.561" height="1.2" x=".96" rx=".6"/>
                <rect width="5.408" height="1.2" x="3.506" y="1.8" rx=".6"/>
                <rect width="2.561" height="1.2" y="1.8" rx=".6"/>
            </g>
            <path fill="url(#i)" d="M23.544 36.31l6.19-.034a.81.81 0 0 1 .815.815l-.005.817a.81.81 0 0 1-.805.805l-6.19.035a.81.81 0 0 1-.815-.815l.005-.817a.81.81 0 0 1 .805-.805z" transform="rotate(145 26.642 37.512)"/>
            <path fill="url(#i)" d="M35.582 73.759l6.227-.033a.81.81 0 0 1 .814.814l-.004.806a.81.81 0 0 1-.806.806l-6.227.032a.81.81 0 0 1-.814-.814l.004-.806a.81.81 0 0 1 .806-.805z" transform="rotate(169 38.697 74.955)"/>
            <path fill="url(#i)" d="M51.988 51.822l6.24.024a.81.81 0 0 1 .806.807l.004.802a.81.81 0 0 1-.814.813l-6.24-.025a.81.81 0 0 1-.806-.806l-.003-.802a.81.81 0 0 1 .813-.813z" transform="rotate(69 55.106 53.045)"/>
            <path fill="url(#i)" d="M54.374 36.33l6.17.024a.81.81 0 0 1 .808.807l.003.823a.81.81 0 0 1-.813.813l-6.17-.024a.81.81 0 0 1-.807-.806l-.004-.824a.81.81 0 0 1 .813-.813z" transform="rotate(20 57.458 37.564)"/>
            <path fill="url(#i)" d="M32.594 55.86l6.25-.008a.81.81 0 0 1 .811.81v.8a.81.81 0 0 1-.81.808l-6.25.009a.81.81 0 0 1-.811-.811l.001-.799a.81.81 0 0 1 .809-.809z" transform="rotate(97 35.72 57.065)"/>
            <path fill="url(#i)" d="M33.308 15.765l6.223.034a.81.81 0 0 1 .805.806l.005.806a.81.81 0 0 1-.815.815l-6.223-.034a.81.81 0 0 1-.805-.806l-.005-.806a.81.81 0 0 1 .815-.815z" transform="rotate(56 36.417 16.996)"/>
            <path fill="url(#i)" d="M64.627 64.083l6.191-.035a.81.81 0 0 1 .815.815l-.005.816a.81.81 0 0 1-.805.806l-6.192.034a.81.81 0 0 1-.814-.814l.004-.817a.81.81 0 0 1 .806-.805z" transform="rotate(144 67.725 65.284)"/>
            <path fill="#1E304E" d="M54.32 1.725c-.296.49-.559 1.008-.786 1.55-22.432.572-40.444 19.151-40.444 41.987 0 17.208 10.227 31.998 24.867 38.488C17.174 81.457 1 63.64 1 42 1 18.804 19.584 0 42.509 0c4.103 0 8.067.602 11.81 1.725z" opacity=".364"/>
            <path fill="url(#i)" d="M9.646 33.812l6.231.03a.81.81 0 0 1 .806.807l.004.804a.81.81 0 0 1-.814.814l-6.231-.03a.81.81 0 0 1-.806-.806l-.004-.805a.81.81 0 0 1 .814-.814z" opacity=".566" transform="rotate(62 12.76 35.04)"/>
            <path fill="#2E4469" d="M25.416 18.867c2.642 1.526 3.53 3.039 3.552 6.053.021 3.014-.845 4.515-3.466 6.003-2.621 1.489-4.376 1.476-7.018-.05-2.643-1.525-3.53-3.038-3.552-6.052-.022-3.014.845-4.515 3.466-6.004 2.62-1.488 4.375-1.476 7.018.05z"/>
            <path fill="#1E304E" d="M26.294 19.419c-2.16-1.023-3.795-.875-6.101.435-2.621 1.488-3.488 2.989-3.467 6.003.02 2.652.71 4.142 2.675 5.5-.295-.139-.6-.3-.917-.483-2.643-1.526-3.53-3.04-3.552-6.053-.022-3.014.845-4.515 3.466-6.004 2.62-1.488 4.375-1.476 7.018.05.317.183.61.366.878.552z" opacity=".765"/>
            <circle cx="27.417" cy="34.935" r="6.5" fill="#328AF1" filter="url(#j)"/>
            <path fill="#2E4469" d="M52.665 74.677l-5.593-7.699a1.6 1.6 0 0 1 .087-1.99l3.007-3.456a1.6 1.6 0 0 1 2.501.11l5.594 7.699a1.6 1.6 0 0 1-.088 1.99l-3.006 3.456a1.6 1.6 0 0 1-2.502-.11z"/>
            <path fill="#1E304E" d="M47.099 66.21l5.86 7.237a1.6 1.6 0 0 0 2.504-.022l2.822-3.607c.096-.122.17-.255.226-.393l.128.158a1.6 1.6 0 0 1 .017 1.993l-2.822 3.608a1.6 1.6 0 0 1-2.504.02l-5.988-7.395a1.6 1.6 0 0 1-.243-1.6z" opacity=".765"/>
            <path fill="#2E4469" d="M38.375 50.325c-3.293-1.751-4.46-3.527-4.671-7.103-.21-3.575.746-5.375 3.829-7.2 3.082-1.825 5.207-1.85 8.5-.099 3.292 1.75 4.46 3.526 4.67 7.102.212 3.576-.746 5.376-3.828 7.2-3.082 1.826-5.207 1.85-8.5.1z"/>
            <path fill="url(#k)" d="M7.653 4.397l6.112 3.581a.504.504 0 0 1 0 .87l-6.112 3.581a.504.504 0 0 1-.76-.435V4.832a.504.504 0 0 1 .76-.435z" transform="rotate(-117 36.026 15.926)"/>
            <path fill="#1E304E" d="M37.278 49.69c2.678 1.164 4.649.952 7.36-.653 3.083-1.825 4.04-3.625 3.83-7.201-.186-3.146-1.112-4.899-3.575-6.467.365.159.744.344 1.14.554 3.292 1.75 4.46 3.526 4.67 7.102.212 3.576-.746 5.376-3.828 7.2-3.082 1.826-5.207 1.85-8.5.1-.395-.21-.76-.422-1.097-.636z" opacity=".536"/>
            <g transform="rotate(14 -172.248 62.65)">
                <rect width="13" height="7" fill="#243756" rx="2"/>
                <path fill="#1E304E" d="M12.823 5.646A2 2 0 0 1 11 6.823H2a2 2 0 0 1-2-2v-3A2 2 0 0 1 1.177 0C1.063.251 1 .53 1 .823v3a2 2 0 0 0 2 2h9c.293 0 .572-.063.823-.177z"/>
            </g>
            <path fill="#243756" d="M25.174 62.796c2.373 0 3.56.663 4.747 2.65 1.186 1.988 1.186 3.314 0 5.302-1.187 1.987-2.374 2.65-4.747 2.65-2.373 0-3.56-.663-4.746-2.65-1.187-1.988-1.187-3.314 0-5.301 1.186-1.988 2.373-2.65 4.746-2.65z"/>
            <path fill="#1E304E" d="M25.98 62.826c-1.852.148-2.896.872-3.94 2.62-1.187 1.988-1.187 3.314 0 5.302 1.044 1.749 2.088 2.472 3.94 2.62-.253.02-.52.03-.806.03-2.373 0-3.56-.663-4.746-2.65-1.187-1.988-1.187-3.314 0-5.301 1.186-1.988 2.373-2.65 4.746-2.65.285 0 .553.009.806.029z"/>
            <path fill="#1E304E" d="M55.855 23.974c-2.269 1.53-3.823 1.674-6.215.574-2.393-1.1-3.232-2.344-3.355-4.974-.124-2.63.59-4.018 2.86-5.548 2.269-1.53 3.823-1.674 6.215-.574.474.218-.718 2.027-.36 2.266.663.44.858 1.144 1.19 1.75.396.723 1.022 1.824 1.076 2.972.124 2.63.858 2.004-1.41 3.534z" opacity=".765"/>
            <path fill="url(#l)" d="M5.31.389c2.51 0 3.764.688 5.018 2.75 1.254 2.063 1.254 3.438 0 5.5-1.254 2.063-2.509 2.75-5.018 2.75-2.508 0-3.763-.687-5.017-2.75-.248-.408 1.585-1.172 1.435-1.537-.277-.675-.066-1.31-.007-1.94.07-.753.158-1.91.705-2.81C3.681.289 2.802.389 5.31.389z" transform="rotate(146 27.423 19.686)"/>
            <path fill="url(#m)" d="M2.416 0C3.433 0 3.94.255 4.45 1.02c.508.764.508 1.274 0 2.038-.509.765-1.017 1.02-2.034 1.02S.89 3.823.38 3.058c-.508-.764-.508-1.274 0-2.039C.89.255 1.4 0 2.416 0z" transform="translate(67 9)"/>
            <path fill="#1E304E" d="M69.761 9.011c-.794.058-1.241.336-1.689 1.008-.508.765-.508 1.275 0 2.04.448.672.895.95 1.689 1.007a4.823 4.823 0 0 1-.345.012c-1.017 0-1.526-.255-2.035-1.02-.508-.764-.508-1.274 0-2.039C67.89 9.255 68.4 9 69.416 9c.122 0 .237.004.345.011z" opacity=".765"/>
            <path fill="#2E4469" d="M75.58 25.848l-.402 2.44a4.286 4.286 0 0 0 1.04 3.563c.436.486 2.241-.35 2.882-.108l2.302 2.575c2.35.891 4.942-.486 5.55-2.95l1.267-5.133c.605-2.449-1.438-3.023-3.48-4.012-.626-.303-1.74 1.549-2.289 1.102-.445-.362-.414-2.878-.882-3.16-.78-.472-2.021-.928-3.722-1.368-1.533.467-2.003 5.452-2.266 7.05z"/>
            <path fill="url(#m)" d="M75.58 24.848l-.402 2.44a4.286 4.286 0 0 0 1.04 3.563c.436.486 2.241-.35 2.882-.108l2.302 2.575c2.35.891 4.942-.486 5.55-2.95l1.267-5.133c.605-2.449-1.438-3.023-3.48-4.012-.626-.303-1.74 1.549-2.289 1.102-.445-.362-.414-2.878-.882-3.16-.78-.472-2.021-.928-3.722-1.368-1.533.467-2.003 5.452-2.266 7.05zM63.486 22.138l-.776.393a1.31 1.31 0 0 0-.606 1.678l.624 1.476a1.276 1.276 0 0 0 2.168.32l1.004-1.22a1.314 1.314 0 0 0-.216-1.876l-.853-.648a1.27 1.27 0 0 0-1.345-.123zM74.17 20.45l-.33.179c-.258.14-.37.473-.257.76l.265.67c.16.405.659.483.919.145l.426-.554a.623.623 0 0 0-.092-.85l-.361-.294a.51.51 0 0 0-.57-.055zM86.405 34.385l-.328.178c-.258.14-.666 1.103-.552 1.39l.552.55c.16.406.666-.026.926-.365l.426-.554a.623.623 0 0 0-.092-.85l-.361-.293a.51.51 0 0 0-.57-.056z"/>
            <path fill="url(#m)" d="M78.339 32.616l-.333.176a.598.598 0 0 0-.26.751l.268.662c.162.4.667.478.93.144l.43-.547a.606.606 0 0 0-.093-.84l-.365-.29a.526.526 0 0 0-.577-.056z" transform="rotate(88 78.602 33.557)"/>
            <path fill="url(#m)" d="M60.157 5.588l-.483.179c-.38.14-.546.472-.38.756l.384.66c.233.401.963.475 1.346.138l.627-.552c.294-.258.235-.642-.13-.841l-.528-.289a1.045 1.045 0 0 0-.836-.051z" transform="rotate(119 60.534 6.53)"/>
            <path fill="url(#m)" d="M81.473 36.837l-.776.393a1.31 1.31 0 0 0-.606 1.678l.624 1.476a1.276 1.276 0 0 0 2.168.32l1.004-1.22a1.314 1.314 0 0 0-.216-1.876l-.852-.648a1.27 1.27 0 0 0-1.346-.123z"/>
            <ellipse cx="80.466" cy="11.904" fill="url(#m)" rx="1.284" ry="1.302"/>
            <g>
                <path fill="#2E4469" d="M67.894 47.301c1.356 0 2.034.408 2.712 1.631.678 1.223.678 2.039 0 3.262-.678 1.223-1.356 1.631-2.712 1.631s-2.034-.408-2.712-1.63c-.678-1.224-.678-2.04 0-3.263.678-1.223 1.356-1.631 2.712-1.631z"/>
                <path fill="#1E304E" d="M68.355 47.32c-1.059.09-1.655.536-2.252 1.612-.678 1.223-.678 2.039 0 3.262.597 1.077 1.193 1.522 2.252 1.613a5.363 5.363 0 0 1-.46.018c-1.357 0-2.035-.408-2.713-1.63-.678-1.224-.678-2.04 0-3.263.678-1.223 1.356-1.631 2.712-1.631.163 0 .316.006.46.018z" opacity=".765"/>
            </g>
        </g>
        <g transform="scale(1 -1) rotate(-23 -240.347 -74.492)">
            <circle cx="12.5" cy="57.5" r="4" fill="url(#n)"/>
            <path stroke="url(#o)" stroke-width="2" d="M29.918 12.217l-.582-9.325L2.743 18.713l8.63 35.336"/>
            <g transform="translate(26)">
                <circle cx="3" cy="3" r="3" fill="url(#n)"/>
                <path fill="#FFF" fill-opacity=".2" d="M1.143 5.143a2.857 2.857 0 1 1 4-4 2.857 2.857 0 0 0-4 4z"/>
            </g>
            <g transform="translate(0 16)">
                <circle cx="3.5" cy="3.5" r="3.5" fill="url(#n)"/>
                <path fill="#FFF" fill-opacity=".2" d="M1.333 6A3.333 3.333 0 1 1 6 1.333 3.333 3.333 0 0 0 1.333 6z"/>
            </g>
            <path fill="#FFF" fill-opacity=".2" d="M10.333 60A3.333 3.333 0 1 1 15 55.333 3.333 3.333 0 0 0 10.333 60z"/>
        </g>
    </g>
</svg>
