<svg xmlns="http://www.w3.org/2000/svg" xmlns:xlink="http://www.w3.org/1999/xlink" width="122" height="122">
  <defs>
    <linearGradient id="f" x1="45.117%" x2="0%" y1="168.048%" y2="5.569%">
      <stop offset="0%" stop-color="#C4D6EB" stop-opacity=".676"/>
      <stop offset="100%" stop-color="#91ACD2" stop-opacity=".3"/>
    </linearGradient>
    <circle id="e" cx="60" cy="60" r="60"/>
    <linearGradient id="h" x1="50%" x2="50%" y1="0%" y2="100%">
      <stop offset="0%" stop-color="#5B79A2"/>
      <stop offset="100%" stop-color="#2E4469"/>
    </linearGradient>
    <linearGradient id="i" x1="50%" x2="46.856%" y1="0%" y2="90.887%">
      <stop offset="0%" stop-color="#C4D6EB" stop-opacity=".676"/>
      <stop offset="100%" stop-color="#91ACD2" stop-opacity=".3"/>
    </linearGradient>
    <linearGradient id="j" x1="0%" x2="300.557%" y1="-17.551%" y2="430.014%">
      <stop offset="0%" stop-color="#C4D6EB" stop-opacity=".676"/>
      <stop offset="100%" stop-color="#91ACD2" stop-opacity=".3"/>
    </linearGradient>
    <path id="a" d="M1.6 18h31.8a1.6 1.6 0 0 1 1.6 1.6v10.8a1.6 1.6 0 0 1-1.6 1.6H1.6A1.6 1.6 0 0 1 0 30.4V19.6A1.6 1.6 0 0 1 1.6 18z"/>
    <mask id="k" width="35" height="14" x="0" y="0" fill="#fff">
      <use xlink:href="#a"/>
    </mask>
    <linearGradient id="l" x1="-43.939%" y1="-33.765%" y2="100%">
      <stop offset="0%" stop-color="#F4487D" stop-opacity=".16"/>
      <stop offset="100%" stop-color="#FF6E9C"/>
    </linearGradient>
    <path id="b" d="M41.6 0h11.8A1.6 1.6 0 0 1 55 1.6v28.8a1.6 1.6 0 0 1-1.6 1.6H41.6a1.6 1.6 0 0 1-1.6-1.6V1.6A1.6 1.6 0 0 1 41.6 0z"/>
    <mask id="m" width="15" height="32" x="0" y="0" fill="#fff">
      <use xlink:href="#b"/>
    </mask>
    <path id="c" d="M40.5.438A1.595 1.595 0 0 1 41.6 0h11.8A1.6 1.6 0 0 1 55 1.6v29.8a1.6 1.6 0 0 1-1.6 1.6H41.6a1.6 1.6 0 0 1-1.6-1.6V13.884a1.596 1.596 0 0 1-.6.116H1.6A1.6 1.6 0 0 1 0 12.4V1.6A1.6 1.6 0 0 1 1.6 0h37.8c.426 0 .813.167 1.1.438z"/>
    <mask id="n" width="55" height="33" x="0" y="0" fill="#fff">
      <use xlink:href="#c"/>
    </mask>
    <path id="d" d="M1.6 0h34.8A1.6 1.6 0 0 1 38 1.6v10.8a1.6 1.6 0 0 1-1.6 1.6H1.6A1.6 1.6 0 0 1 0 12.4V1.6A1.6 1.6 0 0 1 1.6 0z"/>
    <mask id="o" width="38" height="14" x="0" y="0" fill="#fff">
      <use xlink:href="#d"/>
    </mask>
    <filter id="p" width="195.4%" height="195.4%" x="-47.7%" y="-47.7%" filterUnits="objectBoundingBox">
      <feGaussianBlur in="SourceGraphic" stdDeviation="2"/>
    </filter>
    <linearGradient id="q" x1="-69.072%" x2="85.083%" y1="-39.599%" y2="55.347%">
      <stop offset="0%" stop-color="#F4487D" stop-opacity=".16"/>
      <stop offset="100%" stop-color="#FF6E9C"/>
    </linearGradient>
    <linearGradient id="r" x1="94.668%" x2="22.848%" y1="94.914%" y2="7.02%">
      <stop offset="0%" stop-color="#F4487D"/>
      <stop offset="100%" stop-color="#FF6E9C"/>
    </linearGradient>
    <circle id="s" cx="60" cy="60" r="60"/>
  </defs>
  <g fill="none" fill-rule="evenodd" transform="translate(1 1)">
    <mask id="g" fill="#fff">
      <use xlink:href="#e"/>
    </mask>
    <circle cx="60" cy="60" r="59.75" stroke="url(#f)" stroke-width=".5"/>
    <g mask="url(#g)">
      <g transform="translate(19 23)">
        <rect width="82" height="119" fill="url(#h)" rx="3.6"/>
        <rect width="71.588" height="106.78" x="4.755" y="5.659" fill="#2E4469" stroke="url(#i)" stroke-width=".5" rx="3.6"/>
        <g fill="#2E4469" transform="translate(13 12)">
          <use stroke="url(#j)" stroke-dasharray="2 2" stroke-width="1.2" mask="url(#k)" xlink:href="#a"/>
          <rect width="34" height="13" x=".5" y=".5" stroke="url(#l)" rx="1.6"/>
          <use stroke="url(#j)" stroke-dasharray="2 2" stroke-width="1.2" mask="url(#m)" xlink:href="#b"/>
        </g>
        <use fill="#2E4469" stroke="url(#j)" stroke-dasharray="2 2" stroke-width="1.2" mask="url(#n)" transform="translate(13 56)" xlink:href="#c"/>
        <use fill="#2E4469" stroke="url(#j)" stroke-dasharray="2 2" stroke-width="1.2" mask="url(#o)" transform="translate(13 84)" xlink:href="#d"/>
      </g>
    </g>
    <g mask="url(#g)">
      <g transform="rotate(176 39.874 56.375)">
        <circle cx="12.5" cy="62.5" r="4" fill="#F1476C"/>
        <circle cx="12.708" cy="62.708" r="6.292" fill="#F1476C" filter="url(#p)"/>
        <path stroke="url(#q)" stroke-linejoin="round" stroke-width="2" d="M93.042 40.42L26.427 3.184 2.743 23.713l8.63 35.336"/>
        <g transform="translate(23.002 .5)">
          <circle cx="3" cy="3" r="3" fill="#F1476C"/>
          <path fill="#FFF" fill-opacity=".2" d="M1.143 5.143a2.857 2.857 0 1 1 4-4 2.857 2.857 0 0 0-4 4z"/>
        </g>
        <g transform="translate(0 21)">
          <circle cx="3.5" cy="3.5" r="3.5" fill="#F1476C"/>
          <path fill="#FFF" fill-opacity=".2" d="M1.333 6A3.333 3.333 0 1 1 6 1.333 3.333 3.333 0 0 0 1.333 6z"/>
        </g>
        <path fill="#FFF" fill-opacity=".2" d="M10.333 65A3.333 3.333 0 1 1 15 60.333 3.333 3.333 0 0 0 10.333 65z"/>
      </g>
    </g>
    <use stroke="url(#r)" stroke-width="2" xlink:href="#s"/>
  </g>
</svg>
