<svg width="150" height="94" viewBox="0 0 150 94" fill="none" xmlns="http://www.w3.org/2000/svg">
    <rect width="150" height="94" fill="black" fill-opacity="0"/>
    <rect width="135.05" height="55.3915" fill="black" fill-opacity="0" transform="translate(14.9502 15.3931)"/>
    <path d="M23.6103 28.6723V23.785H19.7704V28.6723H15.7671V16.0469H19.7704V20.6898H23.6103V16.0469H27.6136V28.6723H23.6103Z" fill="white"/>
    <path d="M30.5562 28.6723V16.0469H34.5594V28.6723H30.5562Z" fill="white"/>
    <path d="M46.1616 20.3618C45.9165 19.0585 44.9361 18.4883 43.7106 18.4883C41.423 18.4883 40.6877 20.3618 40.6877 22.0723C40.6877 24.9232 42.1583 25.9007 43.7923 25.9007C44.8544 25.9007 46.0799 25.4119 46.1616 24.1087H43.7923V21.5836H49.593V28.5886H46.5701V27.6926C45.8348 28.2628 44.5276 28.9145 42.7302 28.9145C40.1158 28.9145 36.521 26.9596 36.521 22.3167C36.521 18.5698 38.8903 15.3931 43.3021 15.3931C45.8348 15.3931 48.9394 16.6149 49.6747 19.3029L46.1616 20.3618Z" fill="white"/>
    <path d="M60.2953 28.6723V23.785H56.4554V28.6723H52.4521V16.0469H56.4554V20.6898H60.2953V16.0469H64.2986V28.6723H60.2953Z" fill="white"/>
    <path d="M22.2215 40.1578V49.6879H18.2182V40.1578H14.9502V37.0625H25.4078V40.1578H22.2215Z" fill="white"/>
    <path d="M26.6348 49.6879V37.0625H36.6839V39.8319H30.6381V41.7054H36.2754V44.4748H30.6381V46.9999H37.1741V49.6879H26.6348Z" fill="white"/>
    <path d="M51.1451 46.4307C50.4098 47.8154 48.8575 50.0961 44.9359 50.0961C40.279 50.0961 38.3999 46.4307 38.3999 43.4169C38.3999 39.4256 41.1777 36.5747 45.0176 36.5747C48.449 36.5747 50.4098 38.6111 51.1451 40.0772L47.7954 41.7063C47.4686 41.1361 46.9784 39.5885 45.181 39.5885C43.3019 39.5885 42.4849 41.299 42.4849 43.0096C42.4849 45.9419 43.8738 46.7565 45.181 46.7565C46.815 46.7565 47.3869 45.5347 47.7137 44.6387L51.1451 46.4307Z" fill="white"/>
    <path d="M60.704 49.6879V44.8006H56.8641V49.6879H52.8608V37.0625H56.8641V41.7054H60.704V37.0625H64.7073V49.6879H60.704Z" fill="white"/>
    <path d="M75.5719 49.6879L71.4052 42.4385V49.6879H67.647V37.0625H71.8954L76.1438 44.2305V37.0625H79.902V49.6879H75.5719Z" fill="white"/>
    <path d="M88.7249 50.0961C84.6399 50.0961 81.9438 47.571 81.9438 43.3354C81.9438 39.9958 83.9046 36.5747 88.8066 36.5747C93.4635 36.5747 95.5877 39.8329 95.5877 43.2539C95.5877 46.675 93.3818 50.0961 88.7249 50.0961ZM88.7249 46.9194C90.0321 46.9194 91.5027 46.0234 91.5027 43.1725C91.5027 40.6474 90.1138 39.7514 88.7249 39.7514C87.0909 39.7514 85.9471 41.0547 85.9471 43.4169C85.9471 45.6161 86.9275 46.9194 88.7249 46.9194Z" fill="white"/>
    <path d="M97.5503 49.6879V37.0625H101.554V46.5112H106.456V49.6879H97.5503Z" fill="white"/>
    <path d="M113.889 50.0961C109.804 50.0961 107.108 47.571 107.108 43.3354C107.108 39.9958 109.069 36.5747 113.971 36.5747C118.628 36.5747 120.752 39.8329 120.752 43.2539C120.752 46.675 118.628 50.0961 113.889 50.0961ZM113.971 46.9194C115.278 46.9194 116.749 46.0234 116.749 43.1725C116.749 40.6474 115.36 39.7514 113.971 39.7514C112.337 39.7514 111.193 41.0547 111.193 43.4169C111.193 45.6161 112.174 46.9194 113.971 46.9194Z" fill="white"/>
    <path d="M132.027 41.4633C131.782 40.1601 130.802 39.5899 129.576 39.5899C127.289 39.5899 126.553 41.4633 126.553 43.1739C126.553 46.0248 128.024 47.0022 129.658 47.0022C130.72 47.0022 131.946 46.5135 132.027 45.2102H129.658V42.6851H135.459V49.6902H132.436V48.7942C131.701 49.3644 130.393 50.016 128.596 50.016C125.982 50.016 122.387 48.0611 122.387 43.4182C122.387 39.6713 124.756 36.4946 129.168 36.4946C131.701 36.4946 134.805 37.7164 135.54 40.4044L132.027 41.4633Z" fill="white"/>
    <path d="M144.771 44.3934V49.6879H140.768V44.3934L135.703 37.0625H140.36L142.892 41.2981L145.343 37.0625H150L144.771 44.3934Z" fill="white"/>
    <path d="M23.4487 58.0776C26.3082 58.0776 27.7788 59.7882 27.7788 62.2318C27.7788 64.7569 26.3082 66.6303 23.367 66.6303H19.8539V70.7845H15.8506V58.0776H23.4487ZM19.8539 63.9423H22.1415C23.1219 63.9423 23.7755 63.3722 23.7755 62.3133C23.7755 61.5802 23.367 60.6842 22.1415 60.6842H19.8539V63.9423Z" fill="white"/>
    <path d="M36.2758 70.7836L35.7039 68.9916H31.2921L30.7202 70.7836H26.3901L31.2104 58.1582H35.7856L40.5242 70.7836H36.2758ZM33.498 61.7422L32.1091 66.2222H34.8052L33.498 61.7422Z" fill="white"/>
    <path d="M48.7763 58.0776C50.9005 58.0776 53.2698 58.8922 53.2698 62.1503C53.2698 63.7794 52.5345 64.9198 50.6554 65.6529L53.76 70.7845H49.2665L46.8155 66.3045H45.6718V70.7845H41.6685V58.0776H48.7763ZM47.3058 63.698C48.1228 63.698 49.2665 63.5351 49.2665 62.2318C49.2665 60.8471 48.1228 60.7656 47.3058 60.7656H45.6718V63.698H47.3058Z" fill="white"/>
    <path d="M64.3791 70.7845L61.6013 65.7343L59.6405 67.7707V70.7845H55.6372V58.0776H59.6405V62.8834L63.6438 58.0776H68.5458L64.134 62.8834L68.8726 70.703H64.3791V70.7845Z" fill="white"/>
    <rect width="133.663" height="13.5244" fill="black" fill-opacity="0" transform="translate(15.5229 80.4756)"/>
    <path d="M15.5229 87.9721C15.5229 86.2616 16.9935 84.7954 18.7092 84.7954C20.4249 84.7954 21.8955 86.2616 21.8955 87.9721C21.8955 89.6827 20.4249 91.1488 18.7092 91.1488C16.9118 91.1488 15.5229 89.6827 15.5229 87.9721ZM16.5033 87.9721C16.5033 89.1939 17.4837 90.2528 18.7092 90.2528C19.9347 90.2528 20.9151 89.1939 20.9151 87.9721C20.9151 86.7503 19.9347 85.6914 18.7092 85.6914C17.4837 85.6914 16.5033 86.7503 16.5033 87.9721Z" fill="white"/>
    <path d="M23.7745 90.9854V85.6909H22.9575V84.8764H23.7745V84.0618C23.7745 82.5142 23.8562 80.7222 26.0621 81.048V81.944C24.5915 81.7811 24.7549 83.1658 24.7549 84.0618V84.8764H25.9804V85.6909H24.7549V90.9854H23.7745Z" fill="white"/>
    <path d="M32.925 85.6903V90.9848H32.0263V85.6903H31.0459V84.8758H31.9446V82.4321H32.8433V84.8758H34.3139V85.6903H32.925Z" fill="white"/>
    <path d="M35.6206 80.4756H36.5193V85.6072C37.0095 85.037 37.6631 84.7927 38.5618 84.7927C40.3592 84.7927 41.0945 85.6072 41.0945 87.5621V91.0646H40.1958V87.5621C40.1958 86.3403 39.6239 85.7701 38.6435 85.7701C37.418 85.7701 36.601 86.5032 36.601 87.8065V91.0646H35.7023V80.4756H35.6206Z" fill="white"/>
    <path d="M48.7749 88.3785H43.3827C43.5461 89.4374 44.4448 90.252 45.5886 90.252C46.3239 90.252 46.8958 89.9261 47.3043 89.4374H48.4481C47.9579 90.4963 46.8141 91.2294 45.5886 91.2294C43.8729 91.2294 42.4023 89.7632 42.4023 88.0527C42.4023 86.3422 43.8729 84.876 45.5886 84.876C47.3043 84.876 48.7749 86.3422 48.7749 88.0527V88.3785ZM43.4644 87.4825H47.7945C47.5494 86.4236 46.7324 85.6905 45.5886 85.6905C44.5265 85.6905 43.6278 86.5051 43.4644 87.4825Z" fill="white"/>
    <path d="M54.6574 81.0493H55.7195V85.7737L60.0496 81.0493H61.2751L57.2718 85.4478L62.0921 91.0682H60.7849L56.6182 86.2624L55.6378 87.3213V91.0682H54.5757V81.0493H54.6574Z" fill="white"/>
    <path d="M64.299 93.8359H63.1552L64.8709 90.3334L62.1748 84.876H63.3186L65.5245 89.1931L67.7304 84.876H68.8742L66.1781 90.3334L64.299 93.8359Z" fill="white"/>
    <path d="M70.6692 85.6914C71.1594 85.1212 71.8947 84.7954 72.7934 84.7954V85.6914C71.7313 85.6914 70.6692 86.343 70.6692 87.6463V91.0674H69.7705V84.8769H70.6692V85.6914Z" fill="white"/>
    <path d="M80.0661 84.8769V90.4972C80.0661 92.9408 78.5955 93.9997 76.8798 93.9997C75.4909 93.9997 74.2654 93.1037 73.8569 91.8819H74.919C75.3275 92.615 75.9811 93.1037 76.8798 93.1037C78.1053 93.1037 79.0857 92.4521 79.0857 90.4972V90.0899C78.5138 90.7416 77.6968 91.1488 76.7981 91.1488C75.0824 91.1488 73.6118 89.6827 73.6118 87.9721C73.6118 86.2616 75.0824 84.7954 76.7981 84.7954C77.6968 84.7954 78.5138 85.2027 79.0857 85.8543V84.9583H80.0661V84.8769ZM79.0857 87.9721C79.0857 86.7503 78.0236 85.6914 76.7981 85.6914C75.5726 85.6914 74.5922 86.7503 74.5922 87.9721C74.5922 89.1939 75.4909 90.2528 76.7981 90.2528C78.0236 90.1714 79.0857 89.1939 79.0857 87.9721Z" fill="white"/>
    <path d="M83.1706 93.8359H82.0268L83.7425 90.3334L81.0464 84.876H82.1902L84.3961 89.1931L86.602 84.876H87.7458L85.0497 90.3334L83.1706 93.8359Z" fill="white"/>
    <path d="M93.056 90.9859H88.3174V90.0899L91.7488 85.6914H88.3174V84.7954H92.9743V85.6914L89.5429 90.0899H93.056V90.9859Z" fill="white"/>
    <path d="M99.0203 81.0493H102.288C104.167 81.0493 105.475 82.2711 105.475 84.1446C105.475 85.6922 104.576 86.8326 103.187 87.1584L106.21 91.0682H104.821L101.798 87.3213H99.919V91.0682H98.8569V81.0493H99.0203ZM102.288 86.2624C103.596 86.2624 104.413 85.4478 104.413 84.1446C104.413 82.8413 103.596 82.0268 102.288 82.0268H100.001V86.2624H102.288Z" fill="white"/>
    <path d="M113.237 88.3785H107.845C108.008 89.4374 108.907 90.252 110.051 90.252C110.786 90.252 111.358 89.9261 111.766 89.4374H112.91C112.42 90.4963 111.276 91.2294 110.051 91.2294C108.335 91.2294 106.864 89.7632 106.864 88.0527C106.864 86.3422 108.335 84.876 110.051 84.876C111.766 84.876 113.237 86.3422 113.237 88.0527V88.3785ZM107.845 87.4825H112.175C111.93 86.4236 111.113 85.6905 109.969 85.6905C108.988 85.6905 108.09 86.5051 107.845 87.4825Z" fill="white"/>
    <path d="M121.08 87.969C121.08 89.6796 119.61 91.1457 117.894 91.1457C116.995 91.1457 116.096 90.7385 115.606 90.0054V93.7523H114.708V84.7923H115.606V85.7698C116.178 85.1181 116.995 84.6294 117.894 84.6294C119.61 84.7923 121.08 86.177 121.08 87.969ZM120.1 87.969C120.1 86.7472 119.119 85.6883 117.894 85.6883C116.668 85.6883 115.606 86.7472 115.606 87.969C115.606 89.1908 116.668 90.2497 117.894 90.2497C119.119 90.2497 120.1 89.1908 120.1 87.969Z" fill="white"/>
    <path d="M127.778 90.9859H126.798V90.2528C126.308 90.823 125.654 91.0674 124.755 91.0674C122.958 91.0674 122.223 90.2528 122.223 88.2979V84.7954H123.121V88.2979C123.121 89.5198 123.693 90.0899 124.674 90.0899C125.899 90.0899 126.716 89.3568 126.716 88.0536V84.7954H127.697V90.9859H127.778Z" fill="white"/>
    <path d="M129.738 81.0493H130.719V85.8551C131.291 85.2035 132.108 84.7148 133.006 84.7148C134.722 84.7148 136.193 86.1809 136.193 87.8915C136.193 89.602 134.722 91.0682 133.006 91.0682C132.026 91.0682 131.209 90.6609 130.719 89.9278V90.9053H129.738V81.0493ZM135.212 87.9729C135.212 86.7511 134.232 85.6922 133.006 85.6922C131.781 85.6922 130.719 86.7511 130.719 87.9729C130.719 89.1947 131.781 90.2536 133.006 90.2536C134.313 90.2536 135.212 89.1947 135.212 87.9729Z" fill="white"/>
    <path d="M137.582 81.0493H138.48V91.0682H137.582V81.0493Z" fill="white"/>
    <path d="M140.277 82.9231C140.277 82.5973 140.604 82.2715 140.931 82.2715C141.258 82.2715 141.585 82.5973 141.585 82.9231C141.585 83.3304 141.258 83.5748 140.931 83.5748C140.604 83.6562 140.277 83.3304 140.277 82.9231ZM140.522 84.878H141.503V91.0685H140.522V84.878Z" fill="white"/>
    <path d="M148.124 86.8318C147.715 86.0987 147.062 85.6914 146.163 85.6914C144.937 85.6914 143.957 86.7503 143.957 87.9721C143.957 89.1939 144.937 90.2528 146.163 90.2528C146.98 90.2528 147.715 89.7641 148.124 89.031H149.186C148.777 90.2528 147.552 91.1488 146.163 91.1488C144.447 91.1488 142.977 89.6827 142.977 87.9721C142.977 86.2616 144.447 84.7954 146.163 84.7954C147.552 84.7954 148.696 85.6914 149.186 86.9132H148.124V86.8318Z" fill="white"/>
    <path d="M12.255 90.9843H0V0H88.2359V6.10906H6.12749V84.8753H12.255V90.9843Z" fill="#00CFBC"/>
</svg>